<?xml version="1.0" encoding="UTF-8" standalone="no"?>
<!DOCTYPE svg PUBLIC "-//W3C//DTD SVG 1.1//EN" "http://www.w3.org/Graphics/SVG/1.1/DTD/svg11.dtd">
<svg width="100%" height="100%" viewBox="0 0 3000 3000" version="1.1" xmlns="http://www.w3.org/2000/svg" xmlns:xlink="http://www.w3.org/1999/xlink" xml:space="preserve" xmlns:serif="http://www.serif.com/" style="fill-rule:evenodd;clip-rule:evenodd;stroke-linecap:round;stroke-linejoin:round;stroke-miterlimit:1.5;">
    <g id="Layer1">
        <g transform="matrix(2.18282,0,0,2.1998,661.641,571.133)">
            <path d="M142.251,456.651C141.661,474.502 136.417,505.312 126.948,517.009C126.249,530.07 125.193,541.822 122.611,547.981C127.428,554.058 129.711,560.755 129.688,568.015C119.592,581.109 111.29,581.531 103.286,579.846C110.725,589.9 113.73,602.175 113.889,615.875C125.86,623.231 136.928,635.413 147.798,648.651C155.732,652.871 163.18,658.367 169.363,667.184C166.58,676.881 169.942,688.272 181.706,701.98C198.384,711.739 210.093,722.238 218.331,733.255C235.81,740.519 252.134,751.575 267.608,765.423L291.587,775.471C208.06,696.281 149.083,588.599 142.251,456.651Z" style="fill:rgb(21,10,10);"/>
        </g>
        <g transform="matrix(2.18282,0,0,2.1998,661.641,571.133)">
            <path d="M197.948,814.41L216.487,733.763L248.18,746.826L275.839,765.954L266.943,805.192L259.642,841.087L197.948,814.41Z" style="fill:rgb(41,28,17);"/>
        </g>
        <g transform="matrix(2.18282,0,0,2.1998,661.641,571.133)">
            <path d="M227.73,760.793C221.092,775.782 216.638,791.615 220.119,810.517L231.736,822.331L254.088,824.454L264.978,775.11C253.385,764.564 240.849,760.634 227.73,760.793Z" style="fill:rgb(255,117,0);"/>
        </g>
        <g transform="matrix(2.18282,0,0,2.1998,661.641,571.133)">
            <path d="M600.082,634.813C598.868,656.136 601.189,673.019 609.499,682.378C597.498,738.178 601.506,770.455 607.676,799.556C606.154,832.254 612.537,848.522 621.153,860.147L635.129,909.15L388.884,909.474L388.489,858.54C411.574,844.684 433.611,830.503 454.089,815.839L478.355,819.434C490.902,814.633 503.206,808.449 513.486,790.774C524.419,769.597 539.361,748.936 561.775,729.238C567.55,719.802 566.961,712.65 564.482,706.175L600.082,634.813Z" style="fill:rgb(15,7,7);"/>
        </g>
        <g transform="matrix(2.18282,0,0,2.1998,661.641,571.133)">
            <path d="M113.679,620.324C87.999,650.916 59.402,728.275 30.293,813.833C29.652,842.447 31.736,873.843 40.439,911.997L395.196,907.912L387.559,863.596C343.726,856.504 298.424,847.917 251.173,837.347C230.491,830.642 220.356,824.465 198.388,814.105L203.111,798.743C194.017,783.882 176.649,770.651 161.802,758.175C159.493,731.635 150.402,720.862 133.675,698.993C126.848,667.441 127.305,644.665 126.164,633.597" style="fill:rgb(15,7,7);"/>
        </g>
        <g transform="matrix(2.18282,0,0,2.1998,661.641,571.133)">
            <path d="M290.532,330.212C290.532,330.212 313.963,369.144 318.698,361.736C322.194,356.266 264.34,387.818 269.507,388.611C267.705,396.639 265.087,404.721 261.651,412.858C258.723,416.36 254.135,419.203 246.937,421.011C254.184,422.062 258.346,427.274 261.104,434.378C264.192,427.203 268.602,424.647 274.217,426.295C279.598,441.915 278.081,455.786 274.066,469.024C283.892,484.942 298.802,491.982 314.214,498.146C317.051,509.191 320.003,520.212 310.145,533.824C296.048,527.505 280.724,526.729 264.383,530.546C242.083,531.821 220.228,529.811 199.498,519.496C212.298,492.665 223.549,467.214 209.898,463.98C204.95,460.975 197.71,462.772 188.383,468.939C183.632,472.409 180.264,478.141 177.889,485.5C172.392,497.264 171.297,507.902 173.97,517.574C166.374,518.282 158.625,517.933 177.738,537.187L162.534,549.338L152.135,538.303C154.834,524.311 152.58,515.345 146.935,509.817C150.226,500.889 147.333,493.583 143.412,486.545C155.374,474.378 163.916,461.746 165.813,448.211C165.787,441.049 162.153,437.187 156.223,435.423C168.623,424.685 179.931,413.409 187.818,400.452C200.755,388.397 214.512,375.723 229.171,362.372C247.574,348.978 267.86,338.04 290.532,330.212Z" style="fill:rgb(40,37,34);"/>
        </g>
        <g transform="matrix(2.18282,0,0,2.1998,661.641,571.133)">
            <path d="M128.49,22.99C103.581,132.017 104.226,229.397 114.121,322.56C137.566,336.457 157.146,355.071 163.716,389.565C163.089,416.136 158.28,441.481 137.343,462.098C143.514,545.821 161.895,606.993 188.421,653.12C219.972,703.066 255.574,748.552 301.887,782.246C347.491,788.414 402.217,798.687 480.012,819.338L517.904,790.607C525.576,762.125 541.928,742.564 565.645,730.571C573.875,667.107 599.192,602.179 649.4,535.117L631.671,426.188C652.795,379.436 679.313,344.266 708.937,315.763L700.097,281.132C720.538,200.206 742.374,119.664 726.643,36.079C714.133,33.208 685.755,49.804 651.462,73.657L530.998,213.908L504.022,244.308C449.05,260.263 387.889,259.534 321.679,245.195L295.475,198.732L265.687,157.801L222.373,80.454C180.064,33.717 149.678,16.835 128.49,22.99Z" style="fill:rgb(30,28,24);"/>
            <path d="M163.531,389.58C160.455,373.446 154.527,360.794 146.687,350.476C137.8,338.781 126.457,330.086 114.026,322.717L113.937,322.579C108.77,273.931 106.125,224.133 108.322,172.128C110.333,124.522 116.403,75.066 128.309,22.95L128.438,22.814C139.98,19.461 154.246,22.903 171.665,34.27C186.294,43.815 203.156,58.95 222.511,80.331C222.52,80.341 222.528,80.352 222.535,80.364L265.844,157.702L295.626,198.625C295.63,198.63 295.634,198.636 295.637,198.643L321.8,245.033C353.393,251.87 383.832,255.606 412.997,255.908C444.881,256.238 475.242,252.464 503.918,244.147L530.857,213.789L651.322,73.538L651.356,73.507C670.777,59.998 688.302,48.816 702.124,42.176C712.768,37.063 721.23,34.648 726.685,35.9L726.825,36.045C733.119,69.489 733.403,102.445 730.168,135.134C725.317,184.156 712.553,232.576 700.288,281.132L709.117,315.718L709.066,315.895C693.421,330.948 678.643,347.861 665.069,367.359C652.963,384.749 641.815,404.194 631.862,426.213L649.583,535.088L649.549,535.227C626.175,566.446 608.198,597.202 594.83,627.564C579.494,662.393 570.224,696.703 565.828,730.595L565.729,730.735C553.546,736.896 543.31,745.057 535.2,755.404C527.554,765.16 521.799,776.859 518.082,790.654C518.072,790.693 518.048,790.728 518.016,790.753L480.124,819.484L479.964,819.516C446.597,810.658 417.474,803.71 391.495,798.176C356.912,790.81 327.9,785.95 301.862,782.428L301.778,782.394C278.362,765.359 257.682,745.31 238.88,723.196C220.479,701.553 203.876,677.931 188.264,653.217L188.26,653.211C173.444,627.447 161.168,596.993 152.139,560.54C144.996,531.701 139.885,499.107 137.158,462.111L137.212,461.967C147.497,451.84 153.882,440.569 157.788,428.571C161.818,416.194 163.212,403.045 163.531,389.58ZM222.221,80.561C202.901,59.219 186.067,44.107 171.462,34.577C154.215,23.323 140.089,19.858 128.646,23.137C116.761,75.194 110.701,124.591 108.692,172.143C106.497,224.098 109.137,273.85 114.296,322.449C126.735,329.831 138.085,338.546 146.982,350.255C154.857,360.617 160.811,373.325 163.898,389.531L163.901,389.569C163.583,403.077 162.183,416.268 158.141,428.684C154.225,440.711 147.829,452.01 137.534,462.168C140.261,499.109 145.365,531.654 152.498,560.452C161.518,596.868 173.781,627.292 188.58,653.025C204.18,677.721 220.773,701.329 239.163,722.959C257.937,745.04 278.584,765.06 301.959,782.071C327.993,785.593 357,790.453 391.573,797.817C417.534,803.347 446.634,810.289 479.972,819.137L517.741,790.499C521.472,776.677 527.245,764.956 534.908,755.178C543.031,744.814 553.279,736.633 565.473,730.452C569.877,696.561 579.154,662.249 594.491,627.417C607.86,597.053 625.835,566.294 649.205,535.07L631.488,426.217L631.502,426.112C641.469,404.053 652.636,384.571 664.764,367.15C678.331,347.663 693.099,330.754 708.731,315.706L699.917,281.178L699.917,281.088C712.181,232.533 724.949,184.117 729.8,135.098C733.027,102.483 732.749,69.6 726.483,36.231C721.076,35.053 712.75,37.48 702.286,42.507C688.481,49.138 670.981,60.306 651.588,73.794L531.138,214.027C531.138,214.028 531.137,214.029 531.137,214.03L504.161,244.43L504.074,244.485C475.348,252.822 444.934,256.606 412.993,256.276C383.778,255.973 353.285,252.228 321.639,245.374C321.587,245.363 321.543,245.33 321.517,245.284L295.319,198.831L265.537,157.908C265.533,157.903 265.529,157.896 265.525,157.89L222.221,80.561Z" style="fill:rgb(193,175,175);"/>
        </g>
        <g transform="matrix(2.18282,0,0,2.1998,661.641,571.133)">
            <path d="M536.048,530.049C557.608,532 576.104,533.867 583.228,541.541L595.847,537.677L608.391,555.443L617.789,541.793L625.172,544.945L631.509,535.152C623.145,522.312 618.489,511.133 620.16,496.87C623.778,482.352 625.184,474.715 629.25,471.901L635.242,476.892L632.62,420.493C589.357,456.12 554.124,494.497 536.048,530.049Z" style="fill:rgb(49,47,43);"/>
        </g>
        <g transform="matrix(2.18282,0,0,2.1998,661.641,571.133)">
            <path d="M443.649,339.4C460.399,322.998 477.107,305.514 510.377,285.57C505.743,284.41 504.99,280.48 500.077,271.589C497.722,263.851 502.039,254.46 506.743,244.974C489.604,250.125 456.957,256.874 428.423,259.478L352.598,254.861C353.849,261.328 351.324,266.963 347.462,271.453C366.931,283.396 385.282,296.843 400.54,314.444C416.842,320.722 433.011,327.139 443.649,339.4Z" style="fill:rgb(40,37,34);"/>
        </g>
        <g transform="matrix(2.18282,0,0,2.1998,661.641,571.133)">
            <path d="M366.381,689.714C358.259,689.247 353.049,681.729 348.377,672.909C358.633,673.212 368.765,673.652 372.337,681.335C373.277,684.183 371.202,686.975 366.381,689.714Z" style="fill:rgb(212,188,150);"/>
        </g>
        <g transform="matrix(2.18282,0,0,2.1998,661.641,571.133)">
            <path d="M481.726,755.356C486.404,756.809 490.562,755.72 494.389,753.015L485.665,765.248C481.684,770.251 476.4,770.652 470.333,768.287C467.031,770.458 463.056,771.056 458.801,770.998C452.586,770.27 447.281,768.654 443.05,765.993C440.403,768.743 437.649,771.059 434.011,769.757L431.533,758.209C431.618,761.797 430.646,764.882 426.915,766.658C425.259,768.24 422.724,768.34 419.223,766.814C415.686,762.685 414.319,758.826 414.233,755.126L414.052,747.78C414.902,751.559 416.499,755.255 420.043,758.737C420.3,760.449 421.545,761.655 424.465,762.007C427.702,761.009 430.373,758.163 429.852,756.195L431.533,758.209C432.496,759.615 434.066,760.677 436.833,761.062C441.038,763.26 443.984,762.211 446.13,759.098C445.827,761.243 446.854,762.991 452.711,763.298C455.58,764.814 457.144,766.046 459.604,764.347L462.521,761.08C463.492,762.347 465.044,764.801 468.676,764.659C471.085,763.81 471.963,762.529 471.742,760.939C474.368,762.927 476.845,763.454 479.028,761.092L481.726,755.356Z" style="fill:white;"/>
            <path d="M427.161,767.012C426.314,767.8 425.261,768.243 423.99,768.317C422.615,768.398 420.971,768.041 419.051,767.203L418.897,767.089C417.276,765.198 416.104,763.361 415.296,761.57C414.299,759.363 413.853,757.225 413.805,755.137L413.623,747.79C413.618,747.572 413.78,747.384 413.999,747.358C414.218,747.331 414.422,747.474 414.47,747.687C414.913,749.656 415.561,751.602 416.594,753.506C417.505,755.187 418.715,756.834 420.344,758.435C420.41,758.499 420.453,758.583 420.467,758.674C420.597,759.545 421.019,760.266 421.851,760.778C422.478,761.164 423.322,761.432 424.425,761.573C426.022,761.062 427.468,760.084 428.411,759C429.201,758.091 429.654,757.119 429.438,756.303C429.387,756.11 429.478,755.907 429.657,755.816C429.835,755.725 430.054,755.77 430.182,755.923L431.863,757.938L431.863,757.939C431.871,757.949 431.879,757.959 431.887,757.97L431.89,757.974C432.397,758.712 433.084,759.347 434.05,759.825C434.812,760.202 435.745,760.481 436.892,760.641L437.033,760.686C438.891,761.657 440.486,761.974 441.869,761.72C443.431,761.432 444.705,760.412 445.777,758.858C445.889,758.695 446.1,758.63 446.285,758.701C446.471,758.773 446.582,758.961 446.555,759.157C446.409,760.19 446.61,761.122 447.712,761.783C448.678,762.362 450.259,762.744 452.734,762.874C452.796,762.877 452.857,762.894 452.913,762.923C454.512,763.768 455.686,764.535 456.854,764.708C457.635,764.824 458.407,764.646 459.319,764.026L462.201,760.798C462.286,760.703 462.409,760.651 462.537,760.655C462.666,760.66 462.785,760.722 462.862,760.823C463.405,761.53 464.129,762.629 465.331,763.393C466.157,763.918 467.213,764.279 468.594,764.236C469.514,763.906 470.191,763.513 470.648,763.052C471.227,762.467 471.426,761.775 471.318,760.997C471.294,760.826 471.376,760.658 471.526,760.571C471.676,760.485 471.864,760.496 472.002,760.601C473.192,761.502 474.344,762.097 475.455,762.211C476.586,762.328 477.658,761.923 478.668,760.852L481.338,755.176C481.428,754.983 481.649,754.887 481.854,754.951C484.104,755.649 486.23,755.742 488.255,755.336C490.314,754.922 492.267,753.993 494.141,752.669C494.311,752.549 494.544,752.568 494.692,752.714C494.84,752.861 494.86,753.092 494.739,753.261L486.015,765.494L486.001,765.512C483.892,768.162 481.427,769.561 478.686,769.976C476.143,770.361 473.355,769.894 470.383,768.762C468.697,769.834 466.844,770.517 464.874,770.924C462.946,771.321 460.905,771.452 458.795,771.423L458.751,771.42C455.796,771.074 453.044,770.528 450.514,769.768C447.785,768.947 445.313,767.877 443.118,766.536C441.588,768.104 440.009,769.493 438.256,770.147C436.914,770.648 435.47,770.731 433.866,770.157C433.726,770.107 433.623,769.99 433.592,769.846L431.734,761.19C431.579,761.969 431.338,762.708 430.992,763.396C430.257,764.858 429.051,766.099 427.161,767.012ZM492.784,754.53C491.379,755.308 489.928,755.867 488.425,756.169C486.374,756.581 484.225,756.516 481.958,755.869L479.417,761.272C479.398,761.311 479.374,761.348 479.344,761.38C478.1,762.725 476.762,763.201 475.366,763.057C474.34,762.951 473.274,762.497 472.183,761.775C472.127,762.281 471.951,762.753 471.645,763.189C471.126,763.928 470.215,764.568 468.819,765.06L468.692,765.084C467.067,765.148 465.833,764.722 464.869,764.109C463.784,763.42 463.048,762.488 462.494,761.753L459.925,764.629L459.849,764.696C458.693,765.494 457.712,765.696 456.727,765.55C455.501,765.368 454.257,764.6 452.592,763.717C449.973,763.572 448.3,763.129 447.268,762.51C446.291,761.924 445.836,761.183 445.699,760.346C444.649,761.533 443.433,762.296 442.025,762.556C440.502,762.836 438.74,762.527 436.699,761.472C435.479,761.296 434.485,760.99 433.667,760.586C433.139,760.324 432.683,760.022 432.287,759.684L434.38,769.433C435.679,769.845 436.856,769.761 437.954,769.351C439.691,768.703 441.229,767.269 442.74,765.699C442.881,765.553 443.107,765.525 443.279,765.634C445.485,767.021 447.988,768.12 450.763,768.954C453.241,769.699 455.936,770.233 458.829,770.573C460.866,770.6 462.838,770.474 464.699,770.091C466.635,769.692 468.452,769.013 470.096,767.933C470.213,767.856 470.36,767.841 470.49,767.891C473.382,769.019 476.089,769.509 478.556,769.136C481.094,768.751 483.369,767.444 485.322,764.993L492.784,754.53ZM414.561,751.067L414.662,755.117C414.708,757.099 415.132,759.128 416.078,761.222C416.846,762.924 417.958,764.667 419.486,766.464C421.216,767.207 422.695,767.542 423.94,767.468C425.016,767.405 425.907,767.031 426.617,766.352L426.729,766.275C428.454,765.454 429.56,764.341 430.225,763.017C430.911,761.652 431.134,760.069 431.107,758.366L430.266,757.358C430.102,758.079 429.682,758.84 429.06,759.556C428.006,760.767 426.382,761.861 424.592,762.413C424.535,762.43 424.474,762.436 424.414,762.429C422.766,762.23 421.622,761.763 420.862,761.111C420.183,760.527 419.798,759.793 419.643,758.941C417.996,757.306 416.769,755.624 415.839,753.909C415.33,752.971 414.911,752.022 414.561,751.067Z" style="fill:rgb(225,208,208);"/>
        </g>
        <g transform="matrix(2.18282,0,0,2.1998,661.641,571.133)">
            <path d="M399.62,714.09C397.135,712.095 406.177,741.17 410.245,742.384C408.545,747.157 412.777,750.624 413.431,753.926L404.436,759.488C390.827,736.617 389.36,728.264 391.172,727.229C390.213,722.326 397.054,721.012 393.822,714.787C394.015,710.977 393.665,708.508 396.016,706.03C394.897,707.422 403.443,717.158 399.62,714.09Z" style="fill:white;"/>
        </g>
        <g transform="matrix(2.18282,0,0,2.1998,661.641,571.133)">
            <path d="M456.373,700.324C461.413,689.997 480.333,686.289 505.119,685.379C515.824,692.017 520.297,702.853 519.028,717.557C513.273,741.654 502.175,759.913 476.318,762.045C458.333,770.456 448.118,766.317 438.049,761.942C417.243,764.843 408.696,758.46 408.715,745.588L397.124,707.717L396.673,701.546C422.638,690.538 439.706,695.081 456.373,700.324Z" style="fill:rgb(200,127,133);"/>
        </g>
        <g transform="matrix(2.18282,0,0,2.1998,661.641,571.133)">
            <path d="M379.796,730.81C365.203,721.549 365.151,703.369 366.3,689.287L370.746,679.076L405.446,687.159L417.783,686.6C417.916,690.555 421.772,693.395 427.866,695.567C408.235,719.683 409.137,688.305 396.584,704.691C390.077,713.184 403.737,720.124 379.796,730.81Z" style="fill:rgb(186,129,166);"/>
        </g>
        <g transform="matrix(2.18282,0,0,2.1998,661.641,571.133)">
            <path d="M207.674,537.733C222.651,533.824 235.885,533.305 244.139,542.474C251.38,532.705 258.416,529.264 265.271,531.386C285.311,529.475 296.828,532.087 295.065,541.746C303.434,553.735 321.719,548.476 341.624,552.636C374.163,577.324 373.027,595.593 339.57,607.7C325.1,599.738 313.859,597.848 306.391,603.052C292.09,586.878 281.589,580.324 272.465,577.253C258.704,577.051 253.016,583.99 248.521,594.522C237.318,589.537 236.438,578.391 237.369,566.164C234.293,553.195 220.123,543.945 207.674,537.733Z" style="fill:rgb(178,115,35);"/>
        </g>
        <g transform="matrix(2.18282,0,0,2.1998,661.641,571.133)">
            <path d="M235.083,607.73C226.143,595.439 220.071,588.223 212.393,585.21C209.905,574.671 207.518,567.939 199.371,564.055C198.683,550.992 203.28,543.456 209.905,538.04C221.344,543.68 232.681,550.019 234.737,559.511C242.033,569.808 249.159,581.716 250.229,596.376C246.396,602.885 241.601,607.239 235.083,607.73Z" style="fill:rgb(229,193,148);"/>
        </g>
        <g transform="matrix(2.18282,0,0,2.1998,661.641,571.133)">
            <path d="M264.623,670.68C285.281,682.136 311.438,700.595 330.732,717.471C317.884,675.319 276.228,636.504 249.437,598.682L234.778,608.032C226.487,586.846 206.717,554.489 197.379,566.843C191.985,566.488 188.434,570.283 185.43,575.31C182.601,586.137 183.386,595.511 190.943,602.161C196.766,608.129 203.385,614.846 207.888,626.132C230.481,637.259 248.122,653.394 264.623,670.68Z" style="fill:rgb(255,192,112);"/>
        </g>
        <g transform="matrix(2.18282,0,0,2.1998,661.641,571.133)">
            <path d="M209.031,644.482C220.447,653.883 228.533,665.828 225.084,686.586C241.877,699.45 254.09,721.73 265.414,745.84C282.754,752.491 297.281,765.436 310.105,782.194L380.13,794.203C351.331,759.639 316.616,738.258 301.3,715.177C276.789,696.849 248.218,672.796 243.684,659.444C227.44,654.381 217.46,649.419 209.031,644.482Z" style="fill:rgb(172,153,129);"/>
        </g>
        <g transform="matrix(2.18282,0,0,2.1998,661.641,571.133)">
            <path d="M174.337,601.849L185.852,618.014L179.987,628.886L201.147,642.582L211.51,659.895L242.628,656.329L213.57,618.766L174.337,601.849Z" style="fill:rgb(193,149,93);"/>
        </g>
        <g transform="matrix(2.18282,0,0,2.1998,661.641,571.133)">
            <path d="M316.255,601.839C303.968,587.119 292.542,581.688 281.873,584.421C296.787,607.432 313.345,629.763 341.18,647.426C354.101,655.349 370.221,659.172 393.378,653.974C405.275,636.785 412.289,618.568 405.076,597.358C414.451,576.476 413.672,559.168 408.465,553.633C405.095,559.081 391.6,576.183 362.624,590.583C363.074,597.826 356.45,603.699 341.285,607.918C333.812,596.431 325.416,594.977 316.255,601.839Z" style="fill:rgb(146,113,71);"/>
        </g>
        <g transform="matrix(2.18282,0,0,2.1998,661.641,571.133)">
            <path d="M424.147,679.601L473.753,671.255L472.975,662.509L458.633,651.526L442.679,645.322L437.112,632.634L424.447,626.212L418.095,605.252C416.93,598.037 412.973,594.095 405.949,593.749C403.952,603.053 404.248,612.019 407.491,620.55L383.118,657.289" style="fill:rgb(113,99,80);"/>
        </g>
        <g transform="matrix(2.18282,0,0,2.1998,661.641,571.133)">
            <path d="M523.247,556.026L542.616,571.823L546.014,550.025L568.033,550.064L576.554,540.229C570.685,531.068 557.841,527.125 539.613,527.206L523.247,556.026Z" style="fill:rgb(98,87,74);"/>
        </g>
        <g transform="matrix(2.18282,0,0,2.1998,661.641,571.133)">
            <path d="M212.792,663.68C205.446,666.115 203.709,673.133 210.169,686.849C237.357,721.661 268.091,754.193 303.366,783.805L398.761,802.144L475.894,817.792C471.304,805.446 444.286,796.827 417.469,788.175L378.128,787.002L335.781,714.602C305.556,695.751 275.353,676.881 249.565,654.178C238.616,653.368 238.403,640.543 234.808,634.588C234.845,640.411 223.539,655.598 212.792,663.68Z" style="fill:rgb(159,148,134);"/>
        </g>
        <g transform="matrix(2.18282,0,0,2.1998,661.641,571.133)">
            <path d="M425.493,679.637C443.668,673.829 457.445,672.074 471.669,671.123C490.791,668.911 505.583,669.87 510.133,678.327L502.854,687.585C492.376,691.658 479.917,691.953 466.967,691.312C468.175,693.804 464.973,697.295 456.055,702.081L426.37,695.588L406.172,687.379L425.493,679.637Z" style="fill:rgb(63,55,42);"/>
        </g>
        <g transform="matrix(2.18282,0,0,2.1998,661.641,571.133)">
            <path d="M263.512,578.644C278.583,573.859 284.48,586.011 293.041,594.891C307.684,619.757 323.506,633.572 339.239,648.225C366.507,655.75 388.107,657.857 403.372,653.908C414.852,661.353 421.578,673.719 423.883,683.545C406.49,690.516 385.95,683.986 367.533,680.94C367.533,680.94 353.544,677.758 349.252,672.794C344.924,667.79 364.789,692.819 368.308,690.989C370.034,697.143 370.496,703.008 368.594,708.331C369.193,717.984 373.066,721.735 377.025,727.503C381.472,729.909 386.013,724.461 390.906,723.191C391.35,739.34 399.009,747.433 403.871,757.004L408.029,757.106L414.386,748.487C413.129,756.647 416.881,762.733 419.653,767.265C422.96,767.985 425.275,767.969 426.877,767.425C428.452,764.389 431.113,759.78 431.375,757.7C432.689,760.508 433.425,766.762 434.289,769.925C437.795,770.893 440.307,766.331 442.412,766.134C452.545,771.975 464.939,772.299 470.64,768.221C477.912,770.291 481.982,768.546 485.764,765.768C490.068,757.974 497.907,746.758 504.877,743.03L507.623,792.613L478.784,815.69C469.096,810.15 458.622,804.153 442.858,803.168C411.451,798.063 416.058,791.371 404.554,789.388C398.246,787.107 392.011,787.648 385.855,791.288C383.855,787.055 380.911,786.022 377.11,787.904C375.574,774.037 319.07,699.539 313.746,700.183C303.396,701.434 254.735,602.573 250.23,599.337C244.702,595.366 255.086,575.014 263.512,578.644Z" style="fill:rgb(35,34,31);"/>
        </g>
        <g transform="matrix(2.18282,0,0,2.1998,661.641,571.133)">
            <path d="M504.634,710.34C505.55,715.226 506.614,721.547 504.12,728.398C503.314,731.995 499.999,742.158 495.113,751.4L504.87,744.488C510.916,737.234 517.005,729.978 517.819,723.037C517.776,719.177 516.631,715.595 513.306,712.561C512.191,709.547 508.084,708.677 504.634,710.34Z" style="fill:white;"/>
        </g>
        <g transform="matrix(2.18282,0,0,2.1998,661.641,571.133)">
            <path d="M469.315,547.814C494.872,540.83 515.074,541.996 527.196,555.462C535.347,559.806 540.668,566.99 542.45,577.728C537.848,591.503 537.448,601.138 539.987,607.879C536.111,615.391 531.87,621.62 527.074,625.903C520.551,631.008 517.502,636.924 515.907,643.18L508.77,648.805C500.818,652.527 494.007,656.896 486.379,657.582C479.572,656.707 475.357,658.627 473.037,662.59C464.84,662.151 461.183,656.279 457.405,650.899C452.407,652.143 447.457,650.681 442.529,647.931C439.249,645.249 437.56,641.396 437.099,636.637C433.484,631.316 429.017,628.521 424.224,626.694C418.722,620.596 417.681,612.733 416.909,606.375C413.796,601.003 412.624,596.76 406.922,593.958C402.273,585.762 407.385,576.313 410.169,566.511C409.82,561.145 410.468,557.733 416.061,555.7C422.994,547.515 432.697,541.905 442.688,536.563C449.011,534.973 454.01,535.092 457.746,536.843C463.04,539.703 467.568,542.988 469.315,547.814Z" style="fill:rgb(51,44,33);"/>
            <path d="M416.036,555.665C418.864,552.327 422.153,549.417 425.735,546.779C430.935,542.948 436.751,539.69 442.668,536.526L442.678,536.522C446.105,535.66 449.144,535.3 451.804,535.429C454.061,535.539 456.046,536 457.764,536.805L457.766,536.806C460.822,538.457 463.623,540.25 465.782,542.398C467.361,543.969 468.598,545.73 469.341,547.764C483.231,543.971 495.539,542.588 505.828,544.277C514.469,545.696 521.687,549.282 527.222,555.429C531.491,557.705 534.985,560.76 537.601,564.695C539.985,568.28 541.641,572.596 542.491,577.721L542.49,577.741C540.144,584.762 538.89,590.707 538.562,595.741C538.247,600.574 538.784,604.566 540.026,607.864L540.024,607.898C537.831,612.149 535.521,615.989 533.059,619.299C531.168,621.842 529.188,624.072 527.103,625.934L527.1,625.936C524.044,628.328 521.751,630.899 520.013,633.599C518.048,636.653 516.793,639.874 515.948,643.19C515.945,643.199 515.94,643.207 515.933,643.212L508.796,648.838L508.788,648.843C504.172,651.003 499.941,653.381 495.712,655.131C492.65,656.398 489.588,657.335 486.382,657.624L486.373,657.624C483.384,657.239 480.896,657.395 478.85,658.027C476.252,658.83 474.367,660.401 473.073,662.611L473.035,662.632C469.902,662.464 467.43,661.504 465.361,660.083C462.015,657.784 459.723,654.274 457.387,650.947C454.811,651.583 452.247,651.502 449.692,650.898C447.29,650.331 444.897,649.3 442.509,647.967L442.503,647.963C440.796,646.568 439.518,644.856 438.62,642.865C437.788,641.023 437.281,638.942 437.059,636.652C435.359,634.152 433.471,632.211 431.45,630.667C429.179,628.932 426.74,627.697 424.209,626.733L424.193,626.722C422.115,624.418 420.672,621.863 419.639,619.233C417.936,614.894 417.35,610.35 416.869,606.389C414.999,603.161 413.83,600.341 411.955,597.998C410.716,596.449 409.168,595.108 406.903,593.996L406.885,593.979C404.905,590.488 404.69,586.77 405.314,582.894C406.155,577.662 408.525,572.143 410.127,566.506C409.952,563.811 410.03,561.608 410.855,559.824C411.677,558.047 413.24,556.683 416.036,555.665ZM457.727,536.88C456.018,536.079 454.044,535.621 451.8,535.512C449.148,535.384 446.119,535.743 442.703,536.602C436.791,539.763 430.98,543.018 425.785,546.846C422.206,549.482 418.919,552.391 416.093,555.727L416.076,555.739C413.3,556.748 411.747,558.096 410.932,559.858C410.11,561.633 410.037,563.826 410.211,566.508L410.21,566.522C408.609,572.158 406.238,577.676 405.397,582.907C404.777,586.76 404.987,590.456 406.952,593.927C409.223,595.044 410.777,596.391 412.021,597.946C413.9,600.294 415.071,603.12 416.946,606.355L416.951,606.37C417.431,610.328 418.016,614.868 419.717,619.203C420.745,621.821 422.181,624.365 424.249,626.659C426.783,627.625 429.226,628.863 431.501,630.601C433.531,632.152 435.427,634.102 437.134,636.614L437.141,636.633C437.362,638.918 437.867,640.994 438.696,642.831C439.589,644.809 440.858,646.51 442.553,647.896C444.933,649.224 447.318,650.252 449.711,650.817C452.262,651.42 454.822,651.499 457.395,650.859L457.44,650.875C459.775,654.201 462.063,657.715 465.409,660.014C467.461,661.424 469.911,662.376 473.014,662.547C474.318,660.331 476.214,658.754 478.825,657.947C480.88,657.312 483.378,657.155 486.379,657.54C489.575,657.252 492.627,656.317 495.68,655.054C499.907,653.305 504.135,650.929 508.747,648.77L515.87,643.156C516.718,639.836 517.975,636.612 519.942,633.554C521.684,630.847 523.983,628.27 527.047,625.872C529.128,624.013 531.105,621.787 532.992,619.249C535.448,615.947 537.753,612.116 539.941,607.876C538.7,604.572 538.163,600.574 538.478,595.736C538.807,590.699 540.06,584.75 542.407,577.724C541.558,572.617 539.907,568.315 537.531,564.741C534.921,560.815 531.435,557.769 527.176,555.499L527.164,555.49C521.641,549.354 514.438,545.775 505.814,544.359C495.526,542.67 483.217,544.058 469.326,547.855L469.275,547.828C468.537,545.79 467.302,544.028 465.723,542.457C463.569,540.314 460.775,538.527 457.727,536.88Z" style="fill:rgb(160,110,31);"/>
        </g>
        <g transform="matrix(2.18282,0,0,2.1998,661.641,571.133)">
            <path d="M475.639,674.203C472.931,670.721 472.355,666.788 473.037,662.59C477.882,657.393 483.448,654.557 487.051,657.472C508.637,650.527 510.548,647.471 515.973,643.218C523.16,648.227 528.675,655.517 532.772,664.743C534.624,670.41 537.23,675.32 540.316,679.748C539.669,683.853 538.437,687.33 534.918,690.723C538.188,698.74 535.513,706.126 532.28,713.24C528.702,718.548 522.246,723.143 518.279,722.991C519.353,710.532 519.274,700.761 517.588,694.734C515.975,689.486 514.227,683.767 511.354,681.651C509.315,675.72 504.856,675.925 501.394,675.354C495.975,671.958 491.736,670.696 486.465,672.815C482.398,674.459 478.748,675.028 475.639,674.203Z" style="fill:rgb(125,113,92);"/>
        </g>
        <g transform="matrix(2.18282,0,0,2.1998,661.641,571.133)">
            <path d="M502.161,681.024C509.047,688.514 515.761,697.67 518.723,713.29C518.866,705.039 518.574,697.075 516.637,689.015L509.875,677.193C507.662,676.939 505.113,678.117 502.161,681.024Z" style="fill:rgb(64,59,50);"/>
        </g>
        <g transform="matrix(2.18282,0,0,2.1998,661.641,571.133)">
            <path d="M540.505,680.292L516.153,642.67C519.148,628.79 529.049,618.498 540.077,608.792C536.632,600.175 536.608,590.363 542.272,578.564L544.724,561.325L570.665,614.698C569.668,630.976 563.059,647.986 554.004,665.314L540.505,680.292Z" style="fill:rgb(106,89,61);"/>
        </g>
        <g transform="matrix(2.18282,0,0,2.1998,661.641,571.133)">
            <path d="M543.857,537.496L503.667,443.396C494.102,439.169 487.472,433.332 482.575,426.545C479.276,414.331 474.472,406.067 468.863,399.91C460.351,393.134 453.04,390.294 446.494,389.955C438.772,387.016 431.186,388.849 423.676,393.343C416.439,400.555 412.716,407.132 411.31,413.291C411.917,419.6 410.262,425.086 405.676,429.507C403.835,433.506 401.44,436.708 398.436,439.036C395.036,445.845 395.35,452.115 398.815,457.929C399.266,463.472 399.003,468.283 397.029,471.347C392.29,464.522 388.276,462.077 384.504,461.1C382.518,476.727 384.985,486.295 389.161,493.539C391.933,501.997 391.833,507.053 390.428,510.562C389.676,518.542 391.529,524.288 395.593,528.139C401.803,532.226 406.016,545.067 409.358,561.726C423.557,547.282 433.978,541.289 443.519,535.701C457.4,536.706 461.871,535.904 469.723,547.387C498.537,541.408 510.686,542.864 522.667,552.278C529.656,550.871 539.331,543.89 543.857,537.496Z" style="fill:rgb(35,34,31);"/>
        </g>
        <g transform="matrix(2.18282,0,0,2.1998,661.641,571.133)">
            <path d="M503.85,245.248L634.905,422.668L706.356,314.118C708.265,298.349 705.914,281.816 712.915,265.505C747.416,185.121 737.185,105.386 727.826,36.469C701.705,30.438 663.379,61.896 625.695,104.483L503.85,245.248Z" style="fill:rgb(35,34,31);"/>
        </g>
        <g transform="matrix(2.18282,0,0,2.1998,661.641,571.133)">
            <path d="M628.801,472.136C622.615,478.528 620.041,487.15 619.539,497.051C619.061,509.927 620.88,521.431 627.751,529.915C629.566,533.418 633.483,535.828 640.123,536.822L642.185,526.355C641.866,496.621 638.782,472.314 628.801,472.136Z" style="fill:rgb(137,117,85);"/>
            <path d="M627.716,529.938C624.803,526.34 622.797,522.201 621.489,517.644C619.71,511.445 619.222,504.475 619.497,497.049C619.739,492.267 620.465,487.784 621.846,483.706C623.328,479.33 625.565,475.419 628.771,472.107L628.802,472.094C631.074,472.135 632.992,473.417 634.602,475.726C636.208,478.031 637.508,481.361 638.548,485.498C641.051,495.456 642.053,510.094 642.227,526.355C642.227,526.358 642.227,526.361 642.227,526.363L640.164,536.83L640.116,536.864C636.593,536.336 633.834,535.41 631.749,534.134C629.896,533 628.573,531.59 627.716,529.938ZM628.819,472.178C625.628,475.478 623.402,479.374 621.925,483.733C620.547,487.804 619.823,492.28 619.581,497.052C619.306,504.469 619.793,511.43 621.57,517.621C622.875,522.168 624.877,526.299 627.784,529.889L627.789,529.896C628.639,531.537 629.953,532.937 631.793,534.063C633.863,535.329 636.598,536.248 640.089,536.775L642.143,526.352C641.969,510.1 640.968,495.471 638.466,485.519C637.429,481.393 636.134,478.072 634.533,475.773C632.945,473.496 631.057,472.225 628.819,472.178Z" style="fill:rgb(161,115,42);"/>
        </g>
        <g transform="matrix(2.18282,0,0,2.1998,661.641,571.133)">
            <path d="M551.777,664.52C560.928,650.143 566.815,633.077 570.985,614.596C556.546,601.982 549.133,581.62 543.825,558.935C544.437,551.704 546.581,546.834 552.094,547.16C558.217,546.587 564.222,546.849 569.966,548.946C572.346,541.375 578.403,538.648 587.149,539.464C593.022,537.133 596.963,538.597 599.493,542.834C601.386,548.103 604.035,552.076 608.272,553.328C613.031,544.317 618.218,541.781 623.717,543.98C627.629,541.208 629.367,538.155 629.543,534.899C634.172,533.274 638.022,534.141 641.093,537.499C638.363,545.31 634.567,552.546 628.857,558.753C625.458,566.637 621.816,574.396 616.717,581.396C616.632,585.167 615.239,588.872 611.359,592.454C611.513,596.651 610.361,600.523 605.309,603.422C603.185,617.258 596.603,626.361 590.242,635.697C588.4,647.037 587.415,658.117 579.654,664.2C578.512,679.133 574.399,689.084 566.842,698.785L562.271,729.359L551.777,664.52Z" style="fill:rgb(152,119,66);"/>
            <path d="M623.712,543.933C625.448,542.7 626.753,541.412 627.682,540.075C628.832,538.419 629.404,536.689 629.501,534.896L629.529,534.859C631.798,534.063 633.88,533.864 635.775,534.26C637.763,534.675 639.546,535.745 641.124,537.471L641.133,537.513C639.763,541.431 638.126,545.205 636.113,548.777C634.112,552.328 631.74,555.68 628.893,558.776C626.851,563.511 624.723,568.199 622.244,572.705C620.596,575.7 618.793,578.615 616.758,581.41C616.711,583.462 616.276,585.496 615.265,587.501C614.419,589.18 613.168,590.839 611.401,592.471C611.483,594.741 611.181,596.916 610.091,598.893C609.164,600.575 607.667,602.114 605.348,603.448C604.554,608.607 603.14,613.108 601.35,617.209C598.342,624.1 594.269,629.862 590.282,635.713C589.231,642.184 588.459,648.569 586.548,653.99C585.109,658.071 583.025,661.606 579.695,664.222C579.155,671.265 577.954,677.201 576.042,682.525C573.902,688.484 570.872,693.678 566.882,698.802L562.312,729.365C562.309,729.385 562.292,729.4 562.271,729.4C562.25,729.4 562.233,729.385 562.229,729.365L551.736,664.526L551.742,664.497C556.445,657.108 560.286,649.007 563.475,640.368C566.485,632.213 568.914,623.579 570.939,614.611C564.766,609.214 559.877,602.401 555.888,594.596C550.549,584.15 546.822,571.928 543.784,558.944L543.783,558.931C544.115,555.012 544.897,551.785 546.418,549.699C547.715,547.921 549.547,546.969 552.093,547.118C555.145,546.833 558.168,546.755 561.143,547.008C564.128,547.261 567.066,547.848 569.939,548.892C571.189,544.946 573.44,542.318 576.55,540.822C579.396,539.453 582.963,539.033 587.143,539.421C589.857,538.346 592.16,538.079 594.103,538.52C596.378,539.035 598.16,540.519 599.53,542.813L599.533,542.82C600.598,545.785 601.902,548.339 603.596,550.227C604.896,551.675 606.425,552.731 608.251,553.279C610.706,548.639 613.275,545.719 615.941,544.278C618.449,542.921 621.043,542.872 623.712,543.933ZM641.046,537.509C639.484,535.808 637.722,534.752 635.758,534.341C633.883,533.95 631.825,534.146 629.584,534.929C629.481,536.726 628.905,538.461 627.751,540.122C626.814,541.471 625.496,542.771 623.742,544.014L623.702,544.019C621.051,542.959 618.473,543.003 615.981,544.351C613.32,545.789 610.759,548.71 608.309,553.348L608.26,553.368C606.404,552.82 604.852,551.751 603.533,550.282C601.834,548.388 600.524,545.826 599.455,542.852C598.099,540.582 596.336,539.111 594.084,538.601C592.153,538.163 589.864,538.431 587.165,539.502L587.145,539.505C582.979,539.117 579.423,539.533 576.587,540.897C573.486,542.389 571.246,545.015 570.006,548.959L569.952,548.986C567.073,547.934 564.128,547.345 561.136,547.091C558.165,546.838 555.146,546.916 552.098,547.201L552.092,547.202C549.576,547.053 547.767,547.992 546.486,549.748C544.973,551.823 544.198,555.033 543.867,558.932C546.903,571.907 550.628,584.12 555.963,594.558C559.951,602.361 564.839,609.172 571.013,614.565L571.026,614.605C569,623.585 566.568,632.231 563.554,640.397C560.365,649.036 556.524,657.137 551.821,664.529L562.269,729.086L566.801,698.779L566.809,698.76C570.797,693.64 573.825,688.451 575.963,682.497C577.874,677.174 579.074,671.24 579.613,664.197L579.628,664.167C582.954,661.561 585.033,658.034 586.468,653.962C588.379,648.543 589.15,642.159 590.201,635.691L590.207,635.674C594.193,629.824 598.266,624.065 601.273,617.176C603.063,613.076 604.475,608.575 605.268,603.416L605.288,603.386C607.601,602.059 609.094,600.527 610.017,598.853C611.103,596.883 611.4,594.717 611.317,592.455L611.33,592.423C613.096,590.794 614.345,589.139 615.19,587.463C616.197,585.466 616.629,583.44 616.675,581.395L616.683,581.371C618.718,578.577 620.522,575.661 622.17,572.665C624.649,568.159 626.777,563.471 628.819,558.737L628.826,558.725C631.671,555.633 634.04,552.284 636.039,548.736C638.046,545.176 639.679,541.414 641.046,537.509Z"/>
        </g>
        <g transform="matrix(2.18282,0,0,2.1998,661.641,571.133)">
            <path d="M504.665,774.793C502.741,766.185 503.068,757.123 505.806,744.938C508.115,739.202 513.041,738.704 517.328,724.587C520.262,720.644 525.657,716.36 530.268,714.874C533.497,705.872 535.77,697.864 534.406,691.685C536.714,683.072 543.637,674.586 552.37,666.15C557.992,674.467 558.826,691.418 560.642,724.154C556.922,720.671 506.748,788.342 507.456,790.357C508.342,792.873 504.665,774.793 504.665,774.793Z" style="fill:rgb(176,155,122);"/>
            <path d="M530.236,714.841C531.994,709.936 533.469,705.326 534.224,701.147C534.852,697.672 534.983,694.494 534.365,691.694L534.365,691.674C535.381,687.882 537.291,684.114 539.857,680.364C543.121,675.591 547.447,670.848 552.34,666.12L552.405,666.127C554.904,669.823 556.459,675.223 557.573,682.952C558.968,692.624 559.674,705.947 560.684,724.152C560.685,724.169 560.675,724.184 560.659,724.192C560.644,724.199 560.625,724.196 560.613,724.184C560.461,724.042 560.228,724.031 559.92,724.129C559.523,724.256 559.007,724.566 558.388,725.037C555.237,727.435 549.423,733.997 542.82,742.088C530.972,756.606 516.584,776.048 510.467,785.22C509.017,787.395 508.031,788.991 507.656,789.807C507.629,789.865 507.606,789.92 507.585,789.97C507.624,790.263 507.641,790.464 507.634,790.551C507.632,790.574 507.628,790.591 507.624,790.602C507.613,790.627 507.596,790.636 507.58,790.638C507.568,790.64 507.554,790.638 507.54,790.627C507.529,790.619 507.514,790.601 507.498,790.57C507.477,790.53 507.45,790.464 507.417,790.371C507.405,790.338 507.404,790.292 507.414,790.231C507.426,790.162 507.455,790.07 507.499,789.959C507.497,789.94 507.494,789.922 507.492,789.903C507.382,789.103 507.134,787.689 506.827,786.036C505.963,781.389 504.635,774.859 504.624,774.802C503.57,770.089 503.191,765.239 503.513,759.817C503.779,755.33 504.525,750.45 505.765,744.929L505.767,744.923C506.544,742.993 507.615,741.655 508.859,740.194C510.33,738.466 512.042,736.567 513.79,733.307C514.96,731.124 516.147,728.332 517.288,724.575L517.294,724.562C518.755,722.6 520.824,720.553 523.103,718.808C525.403,717.046 527.918,715.592 530.236,714.841ZM507.523,790.142C507.517,790.159 507.513,790.175 507.509,790.19C507.491,790.26 507.485,790.311 507.496,790.343C507.517,790.404 507.536,790.452 507.552,790.489C507.552,790.476 507.551,790.461 507.55,790.445C507.547,790.37 507.537,790.268 507.523,790.142ZM552.363,666.215C547.488,670.927 543.179,675.654 539.926,680.41C537.369,684.149 535.464,687.905 534.449,691.686C535.067,694.494 534.936,697.679 534.307,701.162C533.55,705.35 532.071,709.971 530.308,714.888L530.281,714.914C527.966,715.66 525.453,717.113 523.154,718.874C520.884,720.612 518.822,722.651 517.366,724.606C516.224,728.366 515.036,731.161 513.864,733.346C512.112,736.613 510.397,738.517 508.923,740.248C507.686,741.701 506.619,743.032 505.846,744.951C504.607,750.465 503.862,755.339 503.597,759.822C503.276,765.236 503.654,770.078 504.706,774.784C504.706,774.784 504.706,774.785 504.706,774.785C504.706,774.785 506.388,783.055 507.203,787.63C507.363,788.528 507.489,789.285 507.563,789.809C507.568,789.797 507.574,789.785 507.58,789.772C507.956,788.955 508.943,787.354 510.397,785.174C516.515,776 530.905,756.555 542.754,742.036C549.363,733.937 555.183,727.371 558.337,724.971C558.966,724.493 559.49,724.179 559.895,724.05C560.192,723.955 560.427,723.96 560.595,724.065C559.588,705.91 558.882,692.618 557.49,682.964C556.382,675.28 554.84,669.903 552.363,666.215Z" style="fill:rgb(174,124,46);"/>
        </g>
        <g transform="matrix(2.18282,0,0,2.1998,661.641,571.133)">
            <path d="M192.479,471.927C184.717,477.697 179.565,483.908 179.094,490.91C171.681,498.943 170.927,504.671 173.078,509.394C176.535,511.855 177.348,515.696 176.262,520.529C169.037,521.389 167.335,523.635 170.208,527.03C175.786,527.767 179.332,529.993 181.309,533.367C192.213,530.54 196.775,524.218 199.31,516.779C197.393,511.026 202.353,506.707 209.357,502.815C207.668,492.774 211.008,488.745 214.765,485.215L215.782,471.457C207.419,467.268 196.314,465.896 192.479,471.927Z" style="fill:rgb(201,174,129);"/>
            <path d="M192.447,471.898C194.194,469.158 197.437,467.939 201.243,467.82C205.824,467.677 211.223,469.127 215.801,471.42C215.816,471.427 215.825,471.443 215.824,471.46L214.807,485.218L214.794,485.245C212.566,487.338 210.484,489.607 209.517,493.207C208.856,495.665 208.715,498.743 209.398,502.808L209.377,502.851C205.579,504.962 202.381,507.198 200.561,509.722C199.036,511.836 198.479,514.152 199.35,516.766L199.35,516.793C197.965,520.857 195.975,524.588 192.68,527.6C189.935,530.11 186.284,532.12 181.319,533.407L181.273,533.388C180.189,531.538 178.632,530.035 176.525,528.935C174.8,528.034 172.706,527.402 170.202,527.071L170.175,527.057C168.692,525.303 168.424,523.851 169.477,522.735C170.478,521.674 172.69,520.915 176.227,520.491C176.731,518.236 176.819,516.198 176.415,514.417C175.959,512.407 174.875,510.725 173.053,509.428L173.04,509.411C171.952,507.024 171.604,504.381 172.478,501.315C173.336,498.303 175.374,494.881 179.053,490.893C179.265,487.78 180.4,484.824 182.276,481.993C184.623,478.451 188.132,475.107 192.447,471.898ZM215.738,471.482C211.178,469.202 205.806,467.761 201.246,467.903C197.467,468.021 194.246,469.226 192.514,471.949L192.504,471.96C188.194,475.164 184.69,478.503 182.346,482.038C180.475,484.861 179.345,487.809 179.136,490.913L179.125,490.939C175.452,494.919 173.415,498.332 172.559,501.338C171.693,504.378 172.035,506.999 173.112,509.367C174.946,510.676 176.037,512.372 176.497,514.399C176.905,516.198 176.815,518.258 176.303,520.538L176.267,520.57C172.741,520.99 170.534,521.737 169.539,522.792C168.514,523.878 168.792,525.287 170.229,526.991C172.737,527.324 174.835,527.958 176.564,528.861C178.676,529.964 180.238,531.469 181.329,533.319C186.262,532.035 189.893,530.035 192.624,527.539C195.904,524.54 197.885,520.825 199.266,516.779C198.392,514.143 198.954,511.806 200.493,509.674C202.315,507.147 205.51,504.907 209.31,502.793C208.63,498.727 208.774,495.647 209.435,493.186C210.406,489.575 212.49,487.296 214.724,485.196L215.738,471.482Z"/>
        </g>
        <g transform="matrix(2.18282,0,0,2.1998,661.641,571.133)">
            <path d="M451.38,592.479C456.931,592.407 461.042,593.975 463.416,597.52C466.988,603.292 468.296,608.849 466.873,614.146C462.459,618.451 457.49,620.13 452.27,620.616C446.361,621.942 443.294,619.114 438.89,616.44C435.687,614.652 434.137,612.858 433.522,609.269C429.723,609.18 426.896,606.423 424.578,603.74C430.982,603.359 437.38,603.119 443.566,607.725C442.045,604.363 442.629,601.933 444.96,600.274C445.949,595.696 448.271,593.41 451.38,592.479Z" style="fill:rgb(5,4,0);"/>
            <path d="M444.563,600.018C445.023,597.977 445.749,596.385 446.684,595.16C447.889,593.58 449.443,592.6 451.251,592.058L451.374,592.039C453.989,592.006 456.291,592.331 458.252,593.042C460.592,593.89 462.451,595.285 463.785,597.277L463.793,597.29C465.497,600.043 466.691,602.748 467.332,605.4C468.062,608.423 468.075,611.379 467.301,614.259L467.183,614.459C465.022,616.567 462.731,618.057 460.343,619.092C457.773,620.206 455.091,620.793 452.34,621.051C450.015,621.569 448.114,621.462 446.4,620.983C443.673,620.221 441.425,618.495 438.665,616.819C437.016,615.897 435.794,614.969 434.9,613.817C434.043,612.715 433.483,611.406 433.149,609.692C431.695,609.596 430.378,609.129 429.175,608.435C427.277,607.34 425.664,605.671 424.242,604.026C424.132,603.899 424.104,603.722 424.17,603.568C424.236,603.414 424.383,603.311 424.551,603.301C428.572,603.062 432.59,602.884 436.557,603.893C438.601,604.413 440.632,605.247 442.643,606.547C442.312,605.475 442.213,604.503 442.326,603.629C442.513,602.179 443.272,600.98 444.563,600.018ZM463.043,597.757C461.814,595.925 460.1,594.648 457.948,593.868C456.094,593.195 453.917,592.891 451.449,592.918C449.845,593.409 448.463,594.284 447.39,595.69C446.497,596.86 445.819,598.394 445.393,600.367C445.369,600.473 445.307,600.568 445.218,600.631C444.062,601.454 443.367,602.479 443.205,603.741C443.063,604.836 443.315,606.098 443.97,607.545C444.053,607.728 444,607.943 443.843,608.068C443.685,608.194 443.462,608.197 443.3,608.077C441.005,606.368 438.68,605.341 436.337,604.744C432.757,603.834 429.134,603.923 425.506,604.126C426.716,605.472 428.065,606.778 429.621,607.676C430.796,608.354 432.09,608.796 433.533,608.83C433.745,608.835 433.923,608.988 433.959,609.196C434.254,610.917 434.768,612.208 435.601,613.281C436.432,614.35 437.575,615.202 439.107,616.057L439.121,616.065C441.809,617.697 443.986,619.396 446.64,620.137C448.235,620.583 450.005,620.674 452.172,620.188L452.229,620.179C454.896,619.93 457.497,619.367 459.989,618.286C462.252,617.305 464.424,615.898 466.475,613.916C467.18,611.213 467.156,608.44 466.471,605.605C465.85,603.038 464.691,600.422 463.043,597.757Z"/>
        </g>
        <g transform="matrix(2.18282,0,0,2.1998,661.641,571.133)">
            <path d="M514.954,591.831C514.411,589.934 500.548,597.664 502.267,598.767C500.255,602.161 499.334,605.603 499.256,609.082C500.453,612.791 502.924,616.099 507.516,618.74C511.986,619.04 516.694,618.352 521.797,616.018C524.896,616.002 527.508,614.759 529.834,612.792C530.867,611.199 530.951,609.557 530.251,607.873C526.722,607.33 523.514,605.885 520.723,603.273C522.453,599.813 522.347,596.449 520.569,593.172C521.098,593.77 515.652,594.263 514.954,591.831Z"/>
            <path d="M501.735,598.801C501.721,598.769 501.71,598.735 501.701,598.701C501.643,598.479 501.692,598.182 501.916,597.847C502.578,596.864 505.054,595.156 507.686,593.713C510.294,592.284 513.05,591.12 514.296,591.094C514.921,591.081 515.273,591.338 515.38,591.711C515.527,592.222 515.949,592.557 516.463,592.788C517.522,593.263 518.975,593.291 519.812,593.148C519.924,593.128 520.051,593.091 520.141,593.062C520.166,592.963 520.227,592.873 520.317,592.811C520.502,592.683 520.754,592.714 520.902,592.882C520.958,592.945 520.995,593.009 521.018,593.073C521.913,594.758 522.38,596.466 522.405,598.196C522.428,599.833 522.055,601.492 521.264,603.171C522.532,604.318 523.887,605.224 525.319,605.913C526.896,606.672 528.567,607.169 530.319,607.439C530.472,607.463 530.601,607.564 530.66,607.706C531.042,608.623 531.204,609.53 531.132,610.423C531.061,611.304 530.761,612.174 530.207,613.03C530.183,613.066 530.155,613.099 530.122,613.127C528.924,614.14 527.651,614.965 526.28,615.541C524.923,616.11 523.47,616.436 521.896,616.456C519.488,617.55 517.167,618.282 514.916,618.721C512.356,619.22 509.887,619.34 507.486,619.178L507.294,619.12C505.134,617.878 503.434,616.49 502.108,614.985C500.544,613.211 499.498,611.273 498.835,609.216C498.82,609.169 498.813,609.121 498.814,609.072C498.855,607.24 499.125,605.418 499.658,603.607C500.133,601.996 500.817,600.393 501.735,598.801ZM514.542,591.997C514.514,591.989 514.465,591.978 514.427,591.975C514.225,591.96 513.96,591.999 513.645,592.073C512.294,592.391 510.161,593.362 508.115,594.483C506.057,595.61 504.087,596.891 503.1,597.833C502.907,598.017 502.754,598.185 502.653,598.335C502.628,598.373 502.603,598.424 502.585,598.462C502.721,598.601 502.752,598.817 502.649,598.99C501.694,600.601 500.989,602.222 500.508,603.854C500.004,605.565 499.746,607.286 499.701,609.018C500.33,610.938 501.312,612.748 502.774,614.406C504.025,615.825 505.625,617.133 507.649,618.308C509.944,618.454 512.302,618.335 514.746,617.858C516.959,617.427 519.242,616.703 521.612,615.619C521.669,615.593 521.731,615.579 521.795,615.579C523.283,615.571 524.655,615.268 525.934,614.731C527.205,614.198 528.385,613.434 529.497,612.5C529.944,611.794 530.191,611.079 530.249,610.353C530.305,609.666 530.192,608.971 529.93,608.267C528.183,607.976 526.513,607.465 524.932,606.704C523.333,605.934 521.824,604.908 520.419,603.593C520.277,603.46 520.239,603.251 520.326,603.078C521.149,601.432 521.542,599.81 521.519,598.208C521.498,596.752 521.134,595.315 520.443,593.893C519.845,594.086 518.632,594.188 517.46,593.987C516.134,593.76 514.896,593.138 514.542,591.997Z"/>
        </g>
        <g transform="matrix(2.18282,0,0,2.1998,661.641,571.133)">
            <path d="M453.282,576.952C450.771,577.554 449.127,579.618 447.921,582.423C446.846,582.764 465.089,592.011 467.068,590.234C468.932,588.561 493.197,588.526 492.947,589.505C502.374,586.644 508.955,582.329 513.342,576.891C494.796,575.129 474.937,574.955 453.282,576.952Z" style="fill:rgb(178,172,157);"/>
            <path d="M447.889,582.39C448.583,580.782 449.421,579.417 450.484,578.431C451.277,577.694 452.195,577.169 453.272,576.911L453.278,576.91C463.686,575.951 473.679,575.492 483.311,575.471C493.722,575.448 503.711,575.934 513.346,576.849L513.375,576.917C510.984,579.881 507.942,582.512 504.144,584.756C500.966,586.634 497.258,588.241 492.96,589.545C492.945,589.55 492.929,589.546 492.918,589.536C492.907,589.525 492.903,589.51 492.907,589.495C492.909,589.487 492.905,589.48 492.899,589.472C492.891,589.462 492.879,589.452 492.863,589.441C492.783,589.39 492.625,589.343 492.401,589.298C492.163,589.251 491.85,589.207 491.474,589.168C488.764,588.884 482.764,588.812 477.379,589.003C474.07,589.12 470.994,589.337 469.055,589.666C468.47,589.765 467.99,589.874 467.638,589.993C467.388,590.079 467.204,590.168 467.097,590.265C466.984,590.366 466.822,590.434 466.614,590.47C466.309,590.523 465.904,590.508 465.42,590.435C463.869,590.2 461.496,589.368 458.991,588.324C454.973,586.648 450.616,584.426 448.765,583.253C448.426,583.037 448.171,582.857 448.016,582.722C447.934,582.65 447.88,582.59 447.854,582.543C447.829,582.497 447.829,582.459 447.844,582.432C447.853,582.415 447.867,582.401 447.889,582.39ZM513.26,576.925C503.652,576.015 493.692,575.531 483.311,575.554C473.683,575.576 463.693,576.034 453.289,576.993C452.228,577.248 451.323,577.766 450.541,578.492C449.483,579.474 448.65,580.835 447.96,582.439L447.934,582.462C447.926,582.465 447.92,582.466 447.918,582.471C447.917,582.473 447.918,582.476 447.918,582.479C447.92,582.487 447.923,582.494 447.928,582.503C447.951,582.544 448,582.596 448.072,582.659C448.224,582.793 448.476,582.97 448.811,583.182C450.659,584.354 455.011,586.573 459.024,588.247C461.521,589.288 463.886,590.119 465.433,590.353C465.906,590.424 466.301,590.44 466.6,590.388C466.789,590.355 466.938,590.295 467.04,590.203C467.174,590.083 467.419,589.97 467.761,589.866C468.207,589.731 468.818,589.61 469.558,589.502C472.058,589.138 476.025,588.926 479.988,588.848C484.782,588.753 489.568,588.853 491.743,589.114C492.345,589.186 492.75,589.273 492.904,589.368C492.945,589.394 492.971,589.422 492.983,589.451C497.254,588.151 500.94,586.552 504.101,584.684C507.864,582.461 510.883,579.857 513.26,576.925Z" style="fill:rgb(225,213,194);"/>
        </g>
        <g transform="matrix(2.18282,0,0,2.1998,661.641,571.133)">
            <path d="M305.628,404.747C307.947,403.07 310.341,401.849 312.804,401.043C315.412,400.19 318.097,399.802 320.852,399.837L320.969,399.847C324.499,400.429 327.87,401.22 330.991,402.34C334.368,403.552 337.455,405.148 340.139,407.272L340.203,407.329C342.158,409.261 343.872,411.356 345.251,413.677C346.599,415.943 347.628,418.425 348.25,421.181C348.992,423.253 349.039,425.009 348.782,426.615C348.363,429.228 347.056,431.408 346.833,433.998C346.939,435.26 346.589,436.692 345.932,438.093C345.068,439.936 343.681,441.732 342.235,443.003L342.201,443.031C339.192,445.387 336.994,446.757 335.169,447.63C332.155,449.072 330.16,449.149 327.156,450.04L326.957,450.072C323.158,450.189 319.398,449.848 315.675,449.057C312.063,448.29 308.486,447.1 304.944,445.496L304.805,445.415C302.066,443.411 299.889,441.077 298.172,438.474C296.427,435.827 295.158,432.902 294.262,429.759L294.237,429.634C293.97,427.278 294.073,424.986 294.431,422.731C294.96,419.406 296.045,416.163 297.305,412.913C297.326,412.859 297.353,412.807 297.386,412.758C298.47,411.162 299.662,409.651 301.037,408.282C302.373,406.951 303.881,405.756 305.628,404.747ZM320.773,401.386C318.213,401.359 315.717,401.721 313.293,402.515C310.966,403.276 308.706,404.434 306.516,406.022L306.447,406.067C304.807,407.009 303.395,408.129 302.144,409.375C300.86,410.654 299.745,412.064 298.73,413.552C297.524,416.67 296.481,419.782 295.974,422.972C295.64,425.071 295.54,427.205 295.782,429.398C296.633,432.364 297.831,435.126 299.479,437.625C301.083,440.059 303.115,442.242 305.667,444.12C309.078,445.659 312.523,446.803 316.002,447.542C319.569,448.299 323.171,448.631 326.81,448.526C329.67,447.689 331.6,447.618 334.491,446.234C336.238,445.399 338.337,444.081 341.216,441.829C342.292,440.88 343.33,439.606 344.094,438.255C344.89,436.846 345.4,435.356 345.272,434.074L345.271,433.937C345.482,431.279 346.811,429.047 347.239,426.371C347.462,424.98 347.416,423.458 346.764,421.658L346.736,421.564C346.152,418.955 345.18,416.607 343.906,414.464C342.601,412.269 340.979,410.287 339.132,408.458C336.586,406.45 333.659,404.945 330.46,403.797C327.442,402.715 324.184,401.95 320.773,401.386Z"/>
        </g>
        <g transform="matrix(2.18282,0,0,2.1998,661.641,571.133)">
            <path d="M299.316,418.815C297.42,423.905 298.122,429.457 301.304,435.448C303.425,439.304 305.877,441.701 308.891,441.626C313.971,444.647 319.238,445.968 324.693,445.589C328.672,445.628 332.318,444.783 335.366,442.349C337.963,441.211 340.131,439.24 341.869,436.435C343.637,432.719 344.873,428.892 345.421,424.92C344.688,421.102 343.06,417.702 340.616,414.684C339.755,412.704 338.922,410.21 335.378,409.388C333.319,406.895 330.183,406.299 326.959,405.83L319.057,404.409L312.408,405.541L306.747,409.661C303.765,410.36 301.409,413.977 299.316,418.815Z" style="fill:rgb(193,163,86);"/>
            <path d="M306.312,408.753L311.819,404.744C311.944,404.654 312.088,404.593 312.24,404.567L318.888,403.436C319.003,403.416 319.12,403.417 319.234,403.437L327.121,404.856C329.125,405.147 331.093,405.498 332.815,406.272C333.98,406.795 335.036,407.507 335.929,408.507C337.569,408.948 338.673,409.722 339.482,410.627C340.455,411.716 340.978,413.015 341.479,414.174C342.714,415.715 343.745,417.351 344.563,419.087C345.401,420.864 346.017,422.745 346.398,424.736C346.419,424.841 346.421,424.948 346.407,425.054C346.124,427.107 345.662,429.123 345.041,431.105C344.431,433.053 343.667,434.969 342.77,436.857L342.717,436.953C341.835,438.376 340.847,439.595 339.756,440.613C338.585,441.705 337.295,442.567 335.887,443.2C334.269,444.469 332.496,445.326 330.602,445.86C328.749,446.382 326.779,446.594 324.724,446.577C321.843,446.773 319.012,446.512 316.232,445.795C313.651,445.13 311.113,444.07 308.618,442.614C307.124,442.583 305.745,442.039 304.469,441.049C302.997,439.908 301.655,438.148 300.423,435.909C298.875,432.994 297.898,430.178 297.492,427.466C297.024,424.332 297.316,421.334 298.382,418.473L298.401,418.425C299.535,415.804 300.751,413.533 302.088,411.856C303.367,410.25 304.777,409.174 306.312,408.753ZM319.052,405.412L312.808,406.475L307.336,410.458C307.228,410.536 307.106,410.592 306.976,410.623C305.747,410.911 304.666,411.805 303.649,413.081C302.409,414.637 301.294,416.75 300.241,419.18C299.298,421.724 299.046,424.391 299.462,427.176C299.837,429.686 300.752,432.29 302.178,434.975C303.252,436.928 304.404,438.491 305.695,439.493C306.668,440.247 307.715,440.667 308.866,440.638C309.055,440.633 309.241,440.682 309.403,440.778C311.803,442.206 314.246,443.242 316.733,443.883C319.316,444.549 321.946,444.789 324.623,444.603L324.702,444.601C326.575,444.62 328.371,444.435 330.058,443.96C331.739,443.486 333.312,442.721 334.742,441.579C334.809,441.525 334.884,441.48 334.964,441.445C336.214,440.897 337.357,440.139 338.392,439.173C339.35,438.279 340.216,437.209 340.993,435.963C341.841,434.176 342.562,432.362 343.14,430.519C343.711,428.693 344.142,426.837 344.411,424.947C344.06,423.18 343.506,421.507 342.76,419.924C341.989,418.289 341.012,416.75 339.84,415.303C339.784,415.233 339.737,415.157 339.702,415.075C339.262,414.064 338.848,412.896 337.992,411.937C337.364,411.234 336.48,410.658 335.151,410.35C334.938,410.3 334.747,410.182 334.608,410.014C333.874,409.126 332.981,408.515 331.994,408.071C330.429,407.369 328.636,407.072 326.815,406.808C326.803,406.806 326.792,406.804 326.781,406.802L319.052,405.412Z" style="fill:rgb(126,86,23);"/>
        </g>
        <g transform="matrix(2.18282,0,0,2.1998,661.641,571.133)">
            <path d="M318.92,417.347C315.785,420.345 314.18,423.973 313.842,428.125C317.269,431.428 318.451,435.503 324.268,436.603C328.951,434.955 333.367,432.88 336.176,428.238C337.703,424.789 337.338,422.346 336.018,420.412C334.021,416.961 329.935,414.615 325.239,415.345C322.689,415.136 320.709,416.053 318.92,417.347Z"/>
            <path d="M325.232,415.145C327.524,414.794 329.673,415.162 331.513,416.028C333.503,416.964 335.131,418.484 336.188,420.306C336.956,421.434 337.409,422.73 337.372,424.286C337.344,425.465 337.034,426.795 336.36,428.318L336.348,428.34C334.947,430.656 333.151,432.34 331.122,433.653C329.046,434.996 326.725,435.949 324.335,436.79L324.23,436.798C322.006,436.378 320.448,435.529 319.183,434.456C317.114,432.701 315.846,430.334 313.702,428.267C313.66,428.226 313.637,428.168 313.642,428.109C313.815,425.991 314.313,424.008 315.172,422.174C316.016,420.369 317.208,418.708 318.781,417.204L318.802,417.187C319.741,416.507 320.733,415.93 321.828,415.56C322.857,415.212 323.977,415.045 325.232,415.145ZM335.998,428.146C336.643,426.685 336.944,425.409 336.971,424.277C337.006,422.808 336.578,421.587 335.852,420.523L335.844,420.511C334.827,418.754 333.259,417.29 331.341,416.387C329.563,415.55 327.486,415.197 325.27,415.542L325.223,415.543C324.018,415.444 322.944,415.603 321.958,415.936C320.905,416.292 319.952,416.847 319.049,417.5C317.518,418.966 316.357,420.584 315.535,422.341C314.709,424.107 314.225,426.014 314.05,428.048C316.146,430.092 317.403,432.423 319.443,434.154C320.651,435.179 322.138,435.989 324.252,436.397C326.594,435.571 328.868,434.636 330.903,433.32C332.88,432.041 334.631,430.401 335.998,428.146Z"/>
        </g>
        <g transform="matrix(2.18282,0,0,2.1998,661.641,571.133)">
            <path d="M323.659,419.864C321.511,420.723 320.274,422.153 321.043,424.837C323.305,425.514 324.807,426.63 328.372,426.08C330.926,426.327 333.346,426.026 335.675,425.351C336.997,423.17 336.978,421.52 336.349,420.111C332.459,419.23 328.422,419.022 323.659,419.864Z" style="fill:white;"/>
            <path d="M328.378,426.28C327.166,426.465 326.189,426.46 325.338,426.346C323.671,426.124 322.496,425.48 320.986,425.028C320.92,425.008 320.869,424.957 320.851,424.892C320.464,423.542 320.57,422.495 321.024,421.671C321.514,420.781 322.417,420.146 323.584,419.679L323.624,419.668C325.9,419.266 328.012,419.102 330.021,419.136C332.242,419.173 334.338,419.452 336.393,419.918C336.455,419.932 336.506,419.974 336.532,420.031C336.905,420.867 337.072,421.784 336.893,422.838C336.76,423.624 336.432,424.488 335.847,425.453C335.821,425.496 335.779,425.527 335.731,425.541C334.539,425.887 333.324,426.136 332.079,426.264C330.875,426.389 329.643,426.401 328.378,426.28ZM336.205,420.283C334.208,419.837 332.171,419.57 330.014,419.534C328.035,419.5 325.956,419.661 323.715,420.056C322.654,420.483 321.822,421.05 321.376,421.861C320.976,422.587 320.89,423.505 321.207,424.679C322.646,425.123 323.787,425.738 325.392,425.952C326.216,426.062 327.164,426.065 328.342,425.883L328.392,425.882C329.638,426.002 330.851,425.991 332.038,425.869C333.232,425.745 334.399,425.509 335.543,425.181C336.073,424.294 336.374,423.498 336.498,422.772C336.656,421.841 336.52,421.027 336.205,420.283Z" style="fill:rgb(255,250,242);"/>
        </g>
        <g transform="matrix(2.18282,0,0,2.1998,661.641,571.133)">
            <path d="M345.897,423.611C344.206,424.313 342.547,425.955 342.547,427.73L344.245,431.225C345.933,428.354 346.341,425.379 345.897,423.611Z" style="fill:white;"/>
            <path d="M346.091,423.563C346.077,423.506 346.039,423.459 345.987,423.433C345.934,423.407 345.873,423.405 345.819,423.427C344.966,423.782 344.12,424.368 343.479,425.089C342.796,425.857 342.346,426.776 342.346,427.73C342.346,427.76 342.353,427.789 342.366,427.816L344.065,431.311C344.097,431.378 344.164,431.421 344.238,431.424C344.312,431.427 344.381,431.389 344.419,431.325C345.158,430.067 345.655,428.789 345.945,427.598C346.33,426.018 346.349,424.591 346.091,423.563ZM345.754,423.891C345.03,424.229 344.326,424.738 343.779,425.352C343.174,426.033 342.762,426.841 342.748,427.685L344.26,430.796C344.875,429.681 345.299,428.558 345.556,427.505C345.894,426.115 345.942,424.849 345.754,423.891Z" style="fill:rgb(255,250,242);"/>
        </g>
        <g transform="matrix(2.18282,0,0,2.1998,661.641,571.133)">
            <path d="M547.226,408.757C555.078,408.451 562.595,409.39 569.647,412.06C572.943,412.999 575.32,414.761 575.299,418.67C576.948,423.017 576.619,426.968 574.118,430.485C573.156,433.473 572.107,436.736 569.175,438.547C568.021,442.797 565.481,444.159 563.111,445.526L552.785,447.834L543.993,443.46L536.953,435.947L534.945,429.602L535.021,423.947L537.93,418.936L541.141,413.977L547.226,408.757Z" style="fill:rgb(211,174,109);"/>
            <path d="M569.896,439.074C569.345,440.938 568.533,442.265 567.595,443.291C566.374,444.626 564.929,445.44 563.532,446.245C563.458,446.287 563.378,446.319 563.295,446.337L552.969,448.646C552.78,448.688 552.582,448.664 552.409,448.578L543.618,444.203C543.528,444.159 543.448,444.099 543.38,444.026L536.339,436.514C536.254,436.423 536.191,436.314 536.154,436.196L534.146,429.851C534.119,429.767 534.106,429.68 534.107,429.591L534.183,423.936C534.184,423.794 534.223,423.655 534.294,423.532L537.204,418.521C537.211,418.509 537.218,418.498 537.225,418.486L540.436,413.528C540.479,413.461 540.532,413.4 540.593,413.348L546.678,408.128C546.822,408.004 547.003,407.933 547.193,407.926C551.126,407.773 554.976,407.928 558.727,408.451C562.565,408.986 566.299,409.905 569.913,411.271C571.738,411.795 573.293,412.57 574.389,413.747C575.46,414.897 576.116,416.428 576.136,418.52C576.95,420.714 577.278,422.814 577.113,424.813C576.937,426.941 576.203,428.959 574.878,430.857C574.286,432.693 573.647,434.617 572.591,436.266C571.899,437.347 571.031,438.313 569.896,439.074ZM562.802,444.743C564.022,444.041 565.289,443.336 566.354,442.173C567.193,441.256 567.899,440.049 568.366,438.331C568.421,438.128 568.552,437.953 568.732,437.842C569.781,437.193 570.56,436.336 571.177,435.374C572.179,433.809 572.76,431.97 573.32,430.232C573.346,430.151 573.384,430.074 573.433,430.005C574.623,428.333 575.287,426.556 575.442,424.677C575.592,422.863 575.271,420.958 574.515,418.963C574.479,418.868 574.46,418.768 574.461,418.666C574.47,417.002 573.999,415.779 573.158,414.876C572.248,413.898 570.935,413.292 569.416,412.859L569.348,412.837C565.842,411.509 562.218,410.617 558.494,410.098C554.933,409.602 551.281,409.447 547.551,409.577L541.781,414.528L538.646,419.368L535.856,424.175L535.785,429.48L537.696,435.519L544.504,442.784L552.893,446.958L562.802,444.743Z" style="fill:rgb(142,97,27);"/>
        </g>
        <g transform="matrix(-1.85494,-1.15956,1.15061,-1.86937,2402.47,2953)">
            <path d="M541.65,421.929C541.65,421.929 543.497,418.668 545.306,417.088C548.911,415.851 552.805,415.405 557.187,416.3C559.496,417.365 561.38,418.916 562.641,421.177C564.852,423.51 565.687,426.056 565.711,428.73C565.866,431.265 564.965,432.816 563.658,433.991C562.504,435.587 561.17,436.949 559.44,437.795C558.237,439.035 556.745,439.678 554.903,439.6C552.76,439.876 551.021,439.383 549.615,438.253C547.369,437.483 545.557,436.006 544.041,434.046C542.128,432.571 541.105,430.207 540.486,427.438C539.804,425.703 541.65,421.929 541.65,421.929Z"/>
            <path d="M559.597,438.011C558.967,438.654 558.26,439.139 557.47,439.453C556.699,439.759 555.849,439.902 554.913,439.865C553.866,439.997 552.912,439.95 552.044,439.742C551.092,439.513 550.241,439.089 549.484,438.488C548.334,438.088 547.296,437.508 546.351,436.774C545.435,436.063 544.607,435.208 543.852,434.234C543.029,433.594 542.366,432.795 541.827,431.871C541.097,430.619 540.595,429.136 540.232,427.516C539.992,426.884 540.046,426.004 540.24,425.119C540.599,423.478 541.412,421.814 541.412,421.814C541.414,421.809 541.417,421.805 541.419,421.8C541.419,421.8 542.309,420.229 543.462,418.731C543.985,418.052 544.561,417.389 545.133,416.89L545.222,416.839C547.12,416.187 549.097,415.753 551.182,415.614C553.103,415.485 555.115,415.607 557.242,416.041L557.299,416.06C558.481,416.605 559.553,417.276 560.491,418.099C561.419,418.913 562.216,419.878 562.857,421.019C563.923,422.149 564.673,423.328 565.171,424.546C565.721,425.893 565.962,427.288 565.975,428.719C566.047,429.901 565.895,430.877 565.585,431.704C565.207,432.71 564.596,433.498 563.856,434.167C563.279,434.963 562.657,435.702 561.964,436.349C561.257,437.01 560.477,437.575 559.597,438.011ZM541.884,422.05C541.828,422.166 541.09,423.707 540.757,425.228C540.586,426.01 540.515,426.786 540.733,427.34L540.745,427.379C541.096,428.95 541.578,430.389 542.286,431.604C542.796,432.478 543.423,433.234 544.204,433.837L544.252,433.884C544.985,434.832 545.788,435.666 546.679,436.357C547.589,437.064 548.591,437.623 549.702,438.004C549.731,438.014 549.758,438.029 549.782,438.048C550.488,438.614 551.281,439.014 552.172,439.229C552.988,439.425 553.885,439.465 554.871,439.339L554.916,439.337C555.781,439.373 556.566,439.245 557.276,438.962C558.011,438.671 558.666,438.215 559.25,437.613C559.272,437.59 559.297,437.572 559.325,437.559C560.174,437.143 560.924,436.6 561.603,435.965C562.278,435.335 562.882,434.614 563.444,433.838L563.481,433.795C564.168,433.178 564.739,432.453 565.089,431.523C565.377,430.754 565.514,429.847 565.446,428.747L565.446,428.734C565.434,427.367 565.206,426.035 564.68,424.748C564.202,423.577 563.477,422.445 562.448,421.359L562.41,421.307C561.796,420.207 561.031,419.279 560.14,418.496C559.246,417.712 558.225,417.073 557.102,416.552C555.036,416.133 553.081,416.016 551.214,416.14C549.195,416.275 547.28,416.694 545.441,417.321C544.906,417.795 544.37,418.416 543.882,419.05C542.797,420.459 541.95,421.934 541.884,422.05Z"/>
        </g>
        <g transform="matrix(2.18282,0,0,2.1998,661.641,571.133)">
            <path d="M543.703,421.956L547.497,421.663C548.671,421.673 549.877,421.344 551.1,420.837C552.216,420.397 553.273,420.386 554.245,421.003C555.201,421.204 555.993,421.615 556.462,422.442C556.592,423.827 556.116,425.027 555.281,426.117C554.46,426.744 553.467,427.196 552.3,427.473C550.868,427.331 549.419,427.237 547.856,427.483C546.682,426.971 545.606,427.032 544.575,427.355C543.564,427.659 542.62,427.68 541.743,427.418C540.978,427.11 540.547,426.393 540.394,425.338C541.063,423.885 542.059,422.678 543.703,421.956Z" style="fill:white;"/>
            <path d="M554.347,420.755C554.831,420.861 555.274,421.02 555.658,421.253C556.079,421.508 556.432,421.852 556.693,422.313C556.711,422.345 556.722,422.381 556.726,422.417C556.795,423.149 556.703,423.831 556.485,424.475C556.268,425.11 555.927,425.708 555.492,426.276C555.478,426.295 555.461,426.311 555.443,426.325C555.001,426.663 554.511,426.952 553.972,427.192C553.477,427.412 552.94,427.592 552.362,427.729C552.333,427.736 552.303,427.738 552.273,427.735C551.549,427.663 550.82,427.603 550.073,427.595C549.367,427.587 548.646,427.625 547.897,427.743C547.847,427.751 547.795,427.744 547.749,427.724C547.22,427.493 546.712,427.386 546.22,427.371C545.682,427.354 545.163,427.447 544.652,427.607C544.142,427.761 543.648,427.845 543.171,427.861C542.65,427.878 542.149,427.815 541.666,427.67L541.643,427.662C541.263,427.509 540.955,427.267 540.714,426.944C540.418,426.546 540.225,426.02 540.131,425.376C540.124,425.326 540.131,425.274 540.152,425.228C540.508,424.457 540.953,423.753 541.531,423.149C542.084,422.57 542.759,422.082 543.595,421.715C543.623,421.703 543.652,421.696 543.682,421.694L547.477,421.401L547.499,421.4C548.084,421.405 548.676,421.322 549.275,421.174C549.844,421.034 550.419,420.834 551.002,420.593C551.586,420.362 552.155,420.244 552.706,420.259C553.273,420.275 553.822,420.431 554.347,420.755ZM556.202,422.523C555.991,422.169 555.712,421.903 555.381,421.702C555.033,421.492 554.63,421.353 554.19,421.26C554.158,421.254 554.129,421.241 554.102,421.224C553.651,420.938 553.179,420.799 552.691,420.786C552.208,420.772 551.71,420.88 551.202,421.08C550.598,421.331 549.997,421.539 549.403,421.685C548.764,421.843 548.131,421.93 547.507,421.926L543.769,422.215C543.021,422.55 542.414,422.99 541.916,423.512C541.396,424.055 540.993,424.687 540.668,425.377C540.735,425.791 540.848,426.147 541.016,426.439C541.21,426.777 541.479,427.025 541.832,427.17C542.255,427.295 542.696,427.35 543.153,427.334C543.587,427.32 544.035,427.242 544.495,427.104C545.06,426.927 545.638,426.826 546.237,426.844C546.77,426.861 547.319,426.972 547.89,427.211C548.642,427.098 549.369,427.06 550.079,427.068C550.826,427.077 551.556,427.135 552.281,427.207C552.809,427.079 553.3,426.914 553.755,426.711C554.243,426.494 554.689,426.233 555.091,425.929C555.48,425.416 555.787,424.879 555.982,424.306C556.172,423.748 556.254,423.156 556.202,422.523Z" style="fill:rgb(253,252,251);"/>
        </g>
        <g transform="matrix(2.18282,0,0,2.1998,661.641,571.133)">
            <path d="M558.129,427.984C557.667,426.467 557.67,425.103 558.137,423.893C558.733,422.905 559.453,422.709 560.23,422.872L562.271,423.389L563.54,424.584L563.77,426.579L562.433,427.881L560.2,428.385L558.129,427.984Z" style="fill:white;"/>
            <path d="M557.875,428.06C557.903,428.154 557.981,428.224 558.078,428.242L560.149,428.644C560.185,428.651 560.222,428.65 560.258,428.642L562.492,428.138C562.54,428.127 562.584,428.104 562.619,428.069L563.956,426.767C564.014,426.71 564.043,426.629 564.034,426.549L563.803,424.554C563.796,424.493 563.768,424.436 563.723,424.393L562.454,423.198C562.421,423.167 562.381,423.145 562.337,423.134L560.295,422.617C560.292,422.616 560.288,422.615 560.285,422.614C559.792,422.511 559.319,422.539 558.878,422.773C558.534,422.955 558.206,423.267 557.909,423.757C557.901,423.77 557.894,423.784 557.889,423.798C557.631,424.467 557.508,425.181 557.52,425.939C557.531,426.61 557.649,427.318 557.875,428.06ZM560.17,423.129C559.805,423.053 559.454,423.065 559.128,423.237C558.859,423.38 558.609,423.629 558.376,424.008C558.148,424.609 558.04,425.25 558.051,425.93C558.06,426.511 558.156,427.119 558.338,427.756L560.195,428.116L562.301,427.641L563.492,426.481L563.287,424.709L562.139,423.627L560.17,423.129Z" style="fill:white;"/>
        </g>
        <g transform="matrix(2.18282,0,0,2.1998,661.641,571.133)">
            <path d="M561.432,428.107C561.548,428.536 563.059,427.271 563.059,427.271" style="fill:white;"/>
            <path d="M561.61,427.913C561.705,427.872 561.921,427.775 562.071,427.678C562.475,427.416 562.888,427.07 562.888,427.07C563,426.976 563.168,426.991 563.262,427.102C563.357,427.213 563.342,427.379 563.23,427.473C563.23,427.473 562.379,428.18 561.874,428.386C561.497,428.541 561.242,428.422 561.176,428.176C561.138,428.035 561.222,427.891 561.363,427.853C561.454,427.829 561.546,427.854 561.61,427.913Z" style="fill:rgb(253,252,251);"/>
        </g>
        <g transform="matrix(2.18282,0,0,2.1998,661.641,571.133)">
            <path d="M545.204,405.03C545.054,405.045 544.911,405.1 544.79,405.189C539.712,408.911 536.327,412.417 534.243,416.192C531.833,420.558 531.145,425.292 531.654,431.171L531.723,431.438C533.426,435.239 535.48,438.725 537.981,441.806C540.526,444.942 543.534,447.66 547.108,449.867L547.272,449.946C551.513,451.432 555.005,451.656 558.068,451.178C561.862,450.586 564.997,448.906 568.087,447.164C568.194,447.104 568.287,447.02 568.358,446.92C571.282,442.799 574.499,438.839 577.076,433.509C578.479,430.608 579.693,427.304 580.569,423.353C580.614,423.15 580.58,422.936 580.474,422.756C579.305,420.765 578.908,418.647 578.531,416.707C578.208,415.044 577.894,413.502 577.237,412.227C576.465,410.728 575.249,409.563 573.055,408.963C567.017,407.312 561.875,405.874 556.575,405.195C552.967,404.733 549.285,404.621 545.204,405.03ZM578.862,423.304C577.714,421.224 577.277,419.038 576.885,417.022C576.595,415.526 576.336,414.131 575.745,412.984C575.169,411.866 574.247,411.014 572.61,410.567C566.655,408.939 561.587,407.514 556.36,406.845C552.941,406.407 549.454,406.294 545.601,406.663C540.864,410.159 537.674,413.44 535.713,416.991C533.475,421.046 532.858,425.446 533.312,430.889C534.943,434.506 536.903,437.826 539.286,440.763C541.697,443.733 544.541,446.311 547.917,448.408C551.798,449.755 554.997,449.974 557.807,449.535C561.324,448.987 564.231,447.423 567.097,445.809C569.941,441.815 573.065,437.961 575.565,432.79C576.881,430.068 578.024,426.978 578.862,423.304Z"/>
        </g>
        <g transform="matrix(2.18282,0,0,2.1998,661.641,571.133)">
            <path d="M169.075,387.033C232.257,356.243 282.072,310.122 317.465,247.46C317.592,232.671 276.548,172.329 230.327,100.8C211.315,69.118 190.196,41.293 162.146,26.156L130.654,17.134C109.873,79.691 109.092,157.696 109.296,236.461C110.74,263.632 112.882,291.172 115.767,319.104C134.076,333.714 145.588,345.198 169.075,387.033Z" style="fill:rgb(35,34,31);"/>
        </g>
        <g transform="matrix(2.18282,0,0,2.1998,661.641,571.133)">
            <path d="M400.102,375.296C402.612,367.763 401.963,359.831 395.672,353.491C386.863,355.035 384.43,351.914 377.49,346.896C371.472,351.052 365.357,354.918 358.942,357.882C358.557,362.328 356.843,367.588 351.163,375.281C352.531,384.219 356.103,391.06 362.894,394.835C366.671,401.507 373.085,404.879 381.608,405.612C395.407,397.004 400.558,387.206 400.102,375.296Z" style="fill:rgb(207,147,40);"/>
            <path d="M362.721,395.007C359.145,393.001 356.455,390.152 354.508,386.596C352.747,383.38 351.594,379.585 350.942,375.314L350.982,375.149C353.821,371.306 355.666,368.073 356.847,365.246C358.013,362.452 358.529,360.058 358.719,357.863L358.847,357.681C362.077,356.188 365.23,354.465 368.333,352.591C371.381,350.75 374.38,348.762 377.355,346.705L377.629,346.708C381.85,349.755 384.389,352.105 387.733,353.111C389.837,353.744 392.26,353.838 395.628,353.244L395.852,353.315C398.975,356.456 400.727,359.985 401.407,363.664C402.112,367.48 401.662,371.459 400.383,375.335C400.62,381.869 399.18,387.772 395.571,393.193C392.566,397.709 388.053,401.891 381.741,405.822L381.586,405.859C377.436,405.499 373.782,404.518 370.683,402.843C367.372,401.053 364.693,398.472 362.721,395.007ZM377.486,347.183C374.545,349.208 371.58,351.163 368.569,352.977C365.488,354.834 362.358,356.544 359.153,358.029C358.95,360.227 358.421,362.625 357.257,365.414C356.073,368.249 354.231,371.49 351.398,375.337C352.047,379.515 353.182,383.23 354.91,386.379C356.829,389.874 359.48,392.671 363.009,394.631L363.1,394.72C365.032,398.13 367.661,400.666 370.915,402.42C373.94,404.05 377.503,405.004 381.546,405.357C387.742,401.476 392.178,397.355 395.13,392.904C398.674,387.561 400.074,381.744 399.823,375.306L399.836,375.209C401.108,371.409 401.568,367.505 400.885,363.759C400.237,360.21 398.562,356.803 395.584,353.761C392.185,354.34 389.727,354.222 387.591,353.575C384.24,352.561 381.679,350.23 377.486,347.183Z" style="fill:rgb(255,156,0);"/>
        </g>
        <g transform="matrix(2.18282,0,0,2.1998,661.641,571.133)">
            <path d="M487.657,341.936C483.641,343.794 481.522,346.879 482.178,351.758C479.557,356.809 479.745,360.843 482.099,364.092L484.941,369.308C486.173,372.928 488.375,374.818 490.289,376.105C493.151,377.791 494.987,381.368 495.189,384.882C496.625,387.732 498.464,389.967 502.246,389.232C504.597,390.141 506.927,390.129 509.211,388.088C512.453,384.789 515.934,384.223 518.48,375.837C519.644,372.887 520.951,370.907 517.985,366.386C522.371,367.166 524.539,364.787 527.483,359.237C527.124,357.509 528.186,354.898 527.78,351.13C525.04,349.624 521.984,347.633 518.846,340.137C514.914,341.205 510.327,339.269 504.111,335.976C497.896,330.226 492.657,334.82 487.657,341.936Z" style="fill:rgb(207,147,40);"/>
            <path d="M487.471,341.717C490.356,337.626 493.335,334.383 496.513,333.414C498.951,332.67 501.519,333.229 504.265,335.761C507.486,337.47 510.266,338.813 512.745,339.552C514.971,340.216 516.948,340.394 518.78,339.897C518.902,339.864 519.029,339.926 519.077,340.041C520.543,343.549 521.989,345.842 523.395,347.441C524.959,349.22 526.472,350.136 527.897,350.921C527.965,350.958 528.011,351.027 528.019,351.104C528.114,351.99 528.129,352.813 528.101,353.576C528.009,356.046 527.442,357.875 527.714,359.19L527.692,359.346C526.084,362.372 524.697,364.462 523.073,365.629C521.765,366.569 520.302,366.925 518.446,366.686C519.53,368.438 519.959,369.81 520.015,371.013C520.098,372.774 519.376,374.18 518.691,375.91C517.659,379.303 516.474,381.427 515.215,382.971C513.349,385.26 511.318,386.26 509.37,388.242L509.36,388.252C508.233,389.259 507.094,389.786 505.949,389.963C504.716,390.153 503.474,389.937 502.226,389.463C500.328,389.818 498.905,389.444 497.771,388.632C496.597,387.792 495.735,386.472 494.984,384.984L494.96,384.895C494.862,383.207 494.378,381.503 493.581,380.011C492.755,378.465 491.592,377.145 490.168,376.308L490.156,376.3C489.063,375.567 487.878,374.639 486.826,373.316C486.006,372.285 485.267,371.013 484.716,369.405L481.886,364.224C480.557,362.388 479.903,360.308 480.032,357.942C480.135,356.055 480.738,353.985 481.905,351.711C481.593,349.309 481.946,347.332 482.852,345.715C483.809,344.007 485.385,342.697 487.471,341.717ZM518.699,340.431C516.843,340.885 514.841,340.703 512.598,340.038C510.083,339.291 507.259,337.936 503.987,336.206L503.932,336.166C501.353,333.785 498.956,333.224 496.672,333.925C493.57,334.876 490.697,338.088 487.886,342.095L487.775,342.188C485.769,343.113 484.245,344.348 483.327,345.978C482.457,347.522 482.133,349.416 482.44,351.723L482.413,351.878C481.256,354.103 480.651,356.126 480.546,357.971C480.419,360.22 481.039,362.199 482.303,363.947C482.309,363.955 482.315,363.964 482.32,363.974L485.156,369.192L485.172,369.23C485.701,370.789 486.413,372.021 487.205,373.02C488.219,374.299 489.362,375.196 490.417,375.907C491.909,376.789 493.13,378.172 493.994,379.794C494.812,381.332 495.309,383.083 495.415,384.822C496.124,386.223 496.93,387.473 498.037,388.267C499.093,389.025 500.425,389.358 502.203,389.013C502.245,389.005 502.288,389.009 502.328,389.024C503.519,389.485 504.704,389.706 505.88,389.525C506.948,389.36 508.007,388.865 509.057,387.928C510.993,385.96 513.015,384.969 514.87,382.693C516.102,381.182 517.256,379.098 518.265,375.773L518.271,375.756C518.93,374.085 519.645,372.733 519.564,371.034C519.505,369.796 519.019,368.375 517.793,366.509C517.744,366.434 517.744,366.336 517.794,366.261C517.845,366.185 517.935,366.147 518.025,366.163C519.979,366.51 521.477,366.213 522.803,365.258C524.368,364.131 525.692,362.108 527.236,359.2C526.996,357.866 527.534,356.025 527.623,353.559C527.648,352.852 527.635,352.093 527.553,351.278C526.118,350.486 524.599,349.544 523.027,347.761C521.619,346.164 520.168,343.889 518.699,340.431Z" style="fill:rgb(255,156,0);"/>
        </g>
        <g transform="matrix(2.18282,0,0,2.1998,661.641,571.133)">
            <path d="M553.59,222.581C563.109,236.917 568.664,250.616 571.676,263.905C576.557,284.963 573.671,299.576 574.261,311.526C593.521,321.507 608.657,334.138 619.976,349.222L637.407,340.379C635.769,350.564 642.464,359.727 652.486,363.897C663.172,353.402 675.582,339.238 691.344,317.943C692.532,308.163 689.977,296.039 684.734,282.23C692.755,256.5 703.726,235.01 715.893,215.238C718.389,193.826 718.777,173.437 716.082,154.544C709.379,126.505 707.528,99.496 711.826,73.792C686.993,76.908 667.457,89.796 649.45,105.506L628.241,137.264C610.616,154.565 593.586,168.406 577.472,176.932C570.717,196.776 562.747,211.957 553.59,222.581Z" style="fill:rgb(226,199,139);stroke:rgb(255,156,0);stroke-width:0.97px;"/>
        </g>
        <g transform="matrix(2.18282,0,0,2.1998,661.641,571.133)">
            <path d="M145.238,46.831C123.297,75.698 121.861,122.004 123.284,161.415C123.638,170.921 121.927,186.308 118.535,206.481C123.08,217.371 125.335,232.185 125.103,251.258C131.203,253.964 126.557,260.902 131.684,273.775C128.466,286.599 134.638,295.512 130.034,299.511C144.219,314.034 156.934,333.855 169.6,353.849C173.952,344.239 184.683,339.919 199.622,339.089L233.575,336.583C234.65,324.487 239.661,314.844 248.256,307.437C249.621,291.276 251.512,275.594 260.21,266.121C271.036,253.009 279.872,237.319 286.186,218.361C249.739,176.313 219.705,126.904 198.692,80.221C183.463,64.223 164.123,47.612 145.238,46.831Z" style="fill:rgb(226,199,139);stroke:rgb(255,156,0);stroke-width:0.97px;"/>
        </g>
        <g transform="matrix(2.19248,-0.0432981,0.0429638,2.20954,643.973,588.899)">
            <path d="M730.116,40.296C737.541,102.732 741.184,167.559 716.369,250.38L707.1,272.137C701.314,292.718 703.006,306.055 707.655,316.527C683.224,342.552 659.776,377.836 637.016,419.612C626.046,429.445 628.229,425.556 642.096,536.142C613.311,582.317 586.461,634.012 562.696,694.511C555.731,710.08 553.635,721.958 556.887,729.784C540.94,738.407 525.135,752.327 510.73,774.755L504.617,787.534C485.234,801.574 478.139,812.045 466.882,815.601C440.76,813.657 417.618,807.158 395.203,799.549C366.136,789.322 332.041,783.594 297.413,778.343" style="fill:none;stroke:black;stroke-width:3.01px;"/>
        </g>
        <g transform="matrix(2.18282,0,0,2.1998,661.641,571.133)">
            <path d="M726.046,34.18C672.737,37.836 610.268,121.964 503.73,243.231" style="fill:none;stroke:black;stroke-width:2.54px;"/>
        </g>
        <g transform="matrix(2.18282,0,0,2.1998,661.641,571.133)">
            <path d="M178.1,634.217C203.404,690.205 251.262,742.523 305.11,782.833" style="fill:none;stroke:black;stroke-width:2.25px;"/>
        </g>
        <g transform="matrix(2.18282,0,0,2.1998,661.641,571.133)">
            <path d="M178.1,634.217C150.576,581.151 140.81,523.088 139.911,462.531C153.011,444.592 159.808,424.913 162.292,404.043L165.198,389.81C155.764,362.79 133.128,329.11 115.079,320.773C103.018,217.402 107.474,98.96 126.844,18.684C156.192,20.557 182.718,36.857 206.876,67.265C246.719,110.747 264.89,165.907 302.362,207.813L312.017,224.816L318.727,247.452C383.797,255.644 449.642,266.06 504.14,243.908" style="fill:none;stroke:black;stroke-width:2.22px;"/>
        </g>
        <g transform="matrix(2.18282,0,0,2.1998,661.641,571.133)">
            <path d="M124.428,635.923C128.722,657.383 132.943,678.81 133.485,698.554C133.198,694.416 151.097,722.952 154.449,730.175C156.207,733.963 163.264,758.312 161.235,757.834C175.107,768.474 188.796,781.326 202.351,795.795L218.641,731.411L189.609,706.168L181.706,700.518C170.179,684.988 166.676,674.748 169.419,664.922C159.747,654.281 153.609,651.451 146.974,646.973C142.477,640.693 136.029,636.918 131.263,629.455L124.428,635.923Z" style="fill:rgb(255,145,52);"/>
        </g>
        <g transform="matrix(2.18282,0,0,2.1998,661.641,571.133)">
            <path d="M390.772,803.282L384.551,841.3C387.255,846.267 394.236,849.17 404.978,850.26L452.95,818.434L390.772,803.282Z" style="fill:rgb(255,145,52);"/>
        </g>
        <g transform="matrix(2.18282,0,0,2.1998,661.641,571.133)">
            <path d="M275.345,767.702L258.985,839.84C300.188,848.589 335.754,856.03 390.088,867.825L404.538,851.283L384.327,844.087L394.268,802.874C369.201,797.122 342.313,791.458 309.43,786.079C300.058,778.075 289.128,771.541 275.345,767.702Z" style="fill:rgb(123,112,102);"/>
        </g>
        <g transform="matrix(1.18618,0,0,1.20791,-595.875,-522.646)">
            <path d="M1768.39,444.763C2461.51,444.763 3024.24,994.795 3024.24,1672.28C3024.24,2349.76 2461.51,2899.8 1768.39,2899.8C1075.28,2899.8 512.552,2349.76 512.552,1672.28C512.552,994.795 1075.28,444.763 1768.39,444.763ZM1768.39,815.32C2252.28,815.32 2645.13,1199.31 2645.13,1672.28C2645.13,2145.25 2252.28,2529.24 1768.39,2529.24C1284.51,2529.24 891.66,2145.25 891.66,1672.28C891.66,1199.31 1284.51,815.32 1768.39,815.32Z" style="fill:rgb(232,169,99);"/>
            <path d="M1768.39,437.402C1071.13,437.402 505.056,990.741 505.056,1672.28C505.056,2353.82 1071.13,2907.16 1768.39,2907.16C2465.66,2907.16 3031.74,2353.82 3031.74,1672.28C3031.74,990.741 2465.66,437.402 1768.39,437.402ZM1768.39,452.125C2457.37,452.125 3016.74,998.848 3016.74,1672.28C3016.74,2345.71 2457.37,2892.43 1768.39,2892.43C1079.42,2892.43 520.049,2345.71 520.049,1672.28C520.049,998.848 1079.42,452.125 1768.39,452.125ZM1768.39,807.958C1280.37,807.958 884.163,1195.26 884.163,1672.28C884.163,2149.3 1280.37,2536.6 1768.39,2536.6C2256.43,2536.6 2652.63,2149.3 2652.63,1672.28C2652.63,1195.26 2256.43,807.958 1768.39,807.958ZM1768.39,822.681C2248.13,822.681 2637.63,1203.36 2637.63,1672.28C2637.63,2141.19 2248.13,2521.88 1768.39,2521.88C1288.66,2521.88 899.157,2141.19 899.157,1672.28C899.157,1203.36 1288.66,822.681 1768.39,822.681Z" style="fill:rgb(55,24,16);"/>
        </g>
    </g>
    <g id="Layer2">
        <g transform="matrix(1,0,0,1,-213.722,-372.447)">
            <g transform="matrix(0.00361819,1.12436e-06,-0.00245954,1.65403e-06,2136.29,621.645)">
                <text x="2144.05px" y="nanpx" style="font-family:'AvenirNext-Regular', 'Avenir Next', sans-serif;font-size:2083.33px;fill:rgb(4,1,0);stroke:black;stroke-width:323.25px;stroke-linecap:butt;stroke-miterlimit:2;"><tspan x="2144.05px " y="nanpx ">f</tspan></text>
            </g>
            <g transform="matrix(0.00339925,1.25907e-06,-0.00275422,1.55394e-06,2160.25,596.271)">
                <text x="2167.62px" y="nanpx" style="font-family:'AvenirNext-Regular', 'Avenir Next', sans-serif;font-size:2083.33px;fill:rgb(4,1,0);stroke:black;stroke-width:323.25px;stroke-linecap:butt;stroke-miterlimit:2;"><tspan x="2167.62px " y="nanpx ">r</tspan></text>
            </g>
            <g transform="matrix(0.003103,1.4099e-06,-0.00308415,1.41851e-06,2169.97,529.997)">
                <text x="2176.73px" y="nanpx" style="font-family:'AvenirNext-Regular', 'Avenir Next', sans-serif;font-size:2083.33px;fill:rgb(4,1,0);stroke:black;stroke-width:323.25px;stroke-linecap:butt;stroke-miterlimit:2;"><tspan x="2176.73px " y="nanpx ">g</tspan></text>
            </g>
            <g transform="matrix(0.00308458,1.41832e-06,-0.00310258,1.41009e-06,2178.14,532.811)">
                <text x="2184.88px" y="nanpx" style="font-family:'AvenirNext-Regular', 'Avenir Next', sans-serif;font-size:2083.33px;fill:rgb(4,1,0);stroke:black;stroke-width:323.25px;stroke-linecap:butt;stroke-miterlimit:2;"><tspan x="2184.88px " y="nanpx ">d</tspan></text>
            </g>
            <g transform="matrix(0.003103,1.4099e-06,-0.00308415,1.41851e-06,2178.81,538.782)">
                <text x="2185.59px" y="nanpx" style="font-family:'AvenirNext-Regular', 'Avenir Next', sans-serif;font-size:2083.33px;fill:rgb(4,1,0);stroke:black;stroke-width:323.25px;stroke-linecap:butt;stroke-miterlimit:2;"><tspan x="2185.59px " y="nanpx ">h</tspan></text>
            </g>
            <g transform="matrix(0.00305674,1.43086e-06,-0.00313001,1.39737e-06,2190.36,537.124)">
                <text x="2197.08px" y="nanpx" style="font-family:'AvenirNext-Regular', 'Avenir Next', sans-serif;font-size:2083.33px;fill:rgb(4,1,0);stroke:black;stroke-width:323.25px;stroke-linecap:butt;stroke-miterlimit:2;"><tspan x="2197.08px " y="nanpx ">d</tspan></text>
            </g>
            <g transform="matrix(0.00307533,1.42251e-06,-0.00311175,1.40586e-06,2190.98,543.1)">
                <text x="2197.74px" y="nanpx" style="font-family:'AvenirNext-Regular', 'Avenir Next', sans-serif;font-size:2083.33px;fill:rgb(4,1,0);stroke:black;stroke-width:323.25px;stroke-linecap:butt;stroke-miterlimit:2;"><tspan x="2197.74px " y="nanpx ">h</tspan></text>
            </g>
            <g transform="matrix(0.00368352,1.07912e-06,-0.00236057,1.68389e-06,2129.62,628.405)">
                <text x="2137.49px" y="nanpx" style="font-family:'AvenirNext-Regular', 'Avenir Next', sans-serif;font-size:2083.33px;fill:rgb(4,1,0);stroke:black;stroke-width:323.25px;stroke-linecap:butt;stroke-miterlimit:2;"><tspan x="2137.49px " y="nanpx ">t</tspan></text>
            </g>
            <g transform="matrix(0.00361819,1.12436e-06,-0.00245954,1.65403e-06,2136.29,621.645)">
                <text x="2144.05px" y="nanpx" style="font-family:'AvenirNext-Regular', 'Avenir Next', sans-serif;font-size:2083.33px;fill:rgb(4,1,0);stroke:black;stroke-width:323.25px;stroke-linecap:butt;stroke-miterlimit:2;"><tspan x="2144.05px " y="nanpx ">f</tspan></text>
            </g>
            <g transform="matrix(0.00304741,1.43501e-06,-0.00313909,1.3931e-06,2203.11,547.527)">
                <text x="2209.84px" y="nanpx" style="font-family:'AvenirNext-Regular', 'Avenir Next', sans-serif;font-size:2083.33px;fill:rgb(4,1,0);stroke:black;stroke-width:323.25px;stroke-linecap:butt;stroke-miterlimit:2;"><tspan x="2209.84px " y="nanpx ">h</tspan></text>
            </g>
        </g>
        <g transform="matrix(1,0,0,1,-151.713,-359.928)">
            <g transform="matrix(0.855514,-0.51778,0.51778,0.855514,-341.855,645.505)">
                <text x="985.688px" y="935.289px" style="font-family:'ArialMT', 'Arial', sans-serif;font-size:358.689px;">f</text>
            </g>
            <g transform="matrix(0.909517,-0.415666,0.415666,0.909517,-269.39,524.166)">
                <text x="1069.28px" y="880.854px" style="font-family:'ArialMT', 'Arial', sans-serif;font-size:358.689px;">a</text>
            </g>
            <g transform="matrix(0.965572,-0.260135,0.260135,0.965572,-164.501,352.956)">
                <text x="1251.21px" y="797.96px" style="font-family:'ArialMT', 'Arial', sans-serif;font-size:358.689px;">u</text>
            </g>
            <g transform="matrix(0.989279,-0.146039,0.146039,0.989279,-93.967,219.075)">
                <text x="1445.09px" y="749.527px" style="font-family:'ArialMT', 'Arial', sans-serif;font-size:358.689px;">l</text>
            </g>
            <g transform="matrix(0.99755,-0.0699635,0.0699635,0.99755,-47.8623,108.428)">
                <text x="1523.95px" y="737.48px" style="font-family:'ArialMT', 'Arial', sans-serif;font-size:358.689px;">t</text>
            </g>
            <g transform="matrix(0.999066,0.0432177,-0.0432177,0.999066,32.9828,-69.4722)">
                <text x="1623.23px" y="728.085px" style="font-family:'ArialMT', 'Arial', sans-serif;font-size:358.689px;">y</text>
            </g>
            <g transform="matrix(0.961587,0.274501,-0.274501,0.961587,279.233,-493.237)">
                <text x="1901.95px" y="751.083px" style="font-family:'ArialMT', 'Arial', sans-serif;font-size:358.689px;">c</text>
            </g>
            <g transform="matrix(0.909037,0.416715,-0.416715,0.909037,521.842,-791.93)">
                <text x="2074.9px" y="799.357px" style="font-family:'ArialMT', 'Arial', sans-serif;font-size:358.689px;">a</text>
            </g>
            <g transform="matrix(0.849779,0.52714,-0.52714,0.849779,805.307,-1055.56)">
                <text x="2254.68px" y="885.165px" style="font-family:'ArialMT', 'Arial', sans-serif;font-size:358.689px;">t</text>
            </g>
            <g transform="matrix(0.778475,0.627675,-0.627675,0.778475,1978.25,119.914)">
                <text x="819.241px" y="2862.58px" style="font-family:'ArialMT', 'Arial', sans-serif;font-size:358.689px;">p</text>
            </g>
            <g transform="matrix(0.857274,0.51486,-0.51486,0.857274,1676.88,-75.897)">
                <text x="975.331px" y="2986.58px" style="font-family:'ArialMT', 'Arial', sans-serif;font-size:358.689px;">r</text>
            </g>
            <g transform="matrix(0.912372,0.409362,-0.409362,0.912372,1343.23,-173.219)">
                <text x="1076.22px" y="3050.89px" style="font-family:'ArialMT', 'Arial', sans-serif;font-size:358.689px;">o</text>
            </g>
            <g transform="matrix(0.966183,0.257859,-0.257859,0.966183,850.258,-218.754)">
                <text x="1259.13px" y="3132.25px" style="font-family:'ArialMT', 'Arial', sans-serif;font-size:358.689px;">d</text>
            </g>
            <g transform="matrix(0.995882,0.0906641,-0.0906641,0.995882,294.569,-118.572)">
                <text x="1452.41px" y="3183.05px" style="font-family:'ArialMT', 'Arial', sans-serif;font-size:358.689px;">u</text>
            </g>
            <g transform="matrix(0.997577,-0.0695649,0.0695649,0.997577,-218.651,122.638)">
                <text x="1651.47px" y="3200.63px" style="font-family:'ArialMT', 'Arial', sans-serif;font-size:358.689px;">c</text>
            </g>
            <g transform="matrix(0.983504,-0.180887,0.180887,0.983504,-546.183,383.587)">
                <text x="1830.02px" y="3186.37px" style="font-family:'ArialMT', 'Arial', sans-serif;font-size:358.689px;">t</text>
            </g>
            <g transform="matrix(0.967686,-0.252159,0.252159,0.967686,-736.531,588.58)">
                <text x="1928.18px" y="3167.99px" style="font-family:'ArialMT', 'Arial', sans-serif;font-size:358.689px;">i</text>
            </g>
            <g transform="matrix(0.932035,-0.362369,0.362369,0.932035,-1005.46,941.314)">
                <text x="2006.66px" y="3151.04px" style="font-family:'ArialMT', 'Arial', sans-serif;font-size:358.689px;">o</text>
            </g>
            <g transform="matrix(0.859994,-0.510303,0.510303,0.859994,-1263.99,1549.97)">
                <text x="2192.74px" y="3078.53px" style="font-family:'ArialMT', 'Arial', sans-serif;font-size:358.689px;">n</text>
            </g>
            <g transform="matrix(0.771386,-0.636368,0.636368,0.771386,-1353.02,2184.84)">
                <text x="2364.33px" y="2975.55px" style="font-family:'ArialMT', 'Arial', sans-serif;font-size:358.689px;">s</text>
            </g>
        </g>
    </g>
</svg>
